<svg xmlns="http://www.w3.org/2000/svg" width="22" height="24" fill="none" viewBox="0 0 22 24"><path fill="#efeeea" d="M15.762 18.176a.915.915 0 0 0-.91.918v2.57H1.821V1.837h13.03v2.57c0 .507.407.918.91.918a.915.915 0 0 0 .912-.918V.918A.915.915 0 0 0 15.762 0H.912A.915.915 0 0 0 0 .918v21.665c0 .507.408.918.911.918h14.851a.915.915 0 0 0 .912-.919v-3.488a.915.915 0 0 0-.912-.918"/><path fill="#efeeea" d="m21.691 11.1-2.448-2.466a.906.906 0 0 0-1.288 0 .923.923 0 0 0 0 1.298l.893.9H11.3a.915.915 0 0 0-.911.918c0 .507.408.918.91.918h7.549l-.893.9a.923.923 0 0 0 0 1.298.906.906 0 0 0 1.288 0l2.448-2.467a.9.9 0 0 0 .267-.65.94.94 0 0 0-.267-.648"/></svg>