<svg width="48" height="48" viewBox="0 0 48 48" fill="none" xmlns="http://www.w3.org/2000/svg">
<path d="M24 42.5C34.2173 42.5 42.5 34.2173 42.5 24C42.5 13.7827 34.2173 5.5 24 5.5C13.7827 5.5 5.5 13.7827 5.5 24C5.5 34.2173 13.7827 42.5 24 42.5Z" fill="url(#paint0_linear_1915_3108)"/>
<path d="M34.282 39.382C31.342 41.351 27.805 42.5 24 42.5C13.783 42.5 5.5 34.217 5.5 24C5.5 19.577 7.052 15.516 9.642 12.333" stroke="#D9E73C" stroke-width="3" stroke-linecap="round" stroke-linejoin="round"/>
<path d="M20.1016 5.911C21.3576 5.642 22.6616 5.5 23.9986 5.5C34.2156 5.5 42.4986 13.783 42.4986 24C42.4986 26.864 41.8476 29.576 40.6856 31.996" stroke="#D9E73C" stroke-width="3" stroke-linecap="round" stroke-linejoin="round"/>
<path d="M24 16V27V27.5" stroke="#D9E73C" stroke-width="2" stroke-linecap="round"/>
<path d="M24 31.1V31" stroke="#D9E73C" stroke-width="2" stroke-linecap="round"/>
<defs>
<linearGradient id="paint0_linear_1915_3108" x1="33.252" y1="7.976" x2="14.748" y2="40.024" gradientUnits="userSpaceOnUse">
<stop stop-color="#D9E73C" stop-opacity="0.8"/>
<stop offset="0.033" stop-color="#D9E73C" stop-opacity="0.8"/>
<stop offset="0.197" stop-color="#D9E73C" stop-opacity="0.6"/>
<stop offset="0.362" stop-color="#D9E73C" stop-opacity="0.4"/>
<stop offset="0.525" stop-color="#D9E73C" stop-opacity="0.3"/>
<stop offset="0.687" stop-color="#D9E73C" stop-opacity="0.1"/>
<stop offset="0.846" stop-color="#FBFFFD" stop-opacity="0.02"/>
<stop offset="1" stop-color="white" stop-opacity="0"/>
</linearGradient>
</defs>
</svg>
