<svg width="20" height="20" viewBox="0 0 24 28" fill="none" xmlns="http://www.w3.org/2000/svg">
<path d="M12 0C7.79528 0 4.36364 3.43164 4.36364 7.63637V9.81819H2.18182C0.976364 9.81819 0 10.7946 0 12V25.0909C0 26.2964 0.976364 27.2728 2.18182 27.2728H21.8182C23.0237 27.2728 24 26.2964 24 25.0909V12C24 10.7946 23.0237 9.81819 21.8182 9.81819H19.6364V7.63637C19.6364 3.569 16.4036 0.292986 12.3878 0.07884C12.2644 0.0291381 12.133 0.00242182 12 0ZM12 2.18182C15.0258 2.18182 17.4546 4.61055 17.4546 7.63637V9.81819H6.54546V7.63637C6.54546 4.61055 8.97419 2.18182 12 2.18182Z" fill="#a5adceff"/>
</svg>
