<svg xmlns="http://www.w3.org/2000/svg" width="189" height="42" fill="none" viewBox="0 0 189 42"><g clip-path="url(#a)" filter="url(#b)"><path fill="#d9e73c" d="m2.296 8.684 12.87-.332q3.219-.083 6.06 1.066 2.882 1.108 5.014 3.172 2.17 2.023 3.467 4.842 1.294 2.78 1.377 5.997.084 3.217-1.066 6.06a15.8 15.8 0 0 1-3.213 5.014q-2.023 2.13-4.843 3.426-2.78 1.254-5.998 1.337l-12.87.332zM15.71 29.409a5.8 5.8 0 0 0 2.148-.463 6.1 6.1 0 0 0 1.803-1.228 5.8 5.8 0 0 0 1.175-1.824 5.4 5.4 0 0 0 .392-2.21 5.4 5.4 0 0 0-.505-2.189 5.8 5.8 0 0 0-1.268-1.76A5.2 5.2 0 0 0 17.59 18.6a5.3 5.3 0 0 0-2.17-.392l-2.362.06.289 11.201zM31.133 7.94l12.871-.331q3.218-.084 6.06 1.066 2.88 1.108 5.013 3.172 2.171 2.023 3.467 4.842 1.294 2.78 1.378 5.997t-1.067 6.06a15.8 15.8 0 0 1-3.212 5.014q-2.024 2.13-4.844 3.426-2.78 1.254-5.997 1.337l-12.871.332zm13.414 20.726a5.8 5.8 0 0 0 2.149-.463 6.1 6.1 0 0 0 1.802-1.228 5.8 5.8 0 0 0 1.176-1.824 5.4 5.4 0 0 0 .39-2.21 5.4 5.4 0 0 0-.504-2.189 5.8 5.8 0 0 0-1.268-1.76 5.2 5.2 0 0 0-1.863-1.134 5.3 5.3 0 0 0-2.17-.393l-2.363.061.289 11.201zm13.669 4.62a5.35 5.35 0 0 1 .353-2.088 5.15 5.15 0 0 1 2.777-2.965 4.9 4.9 0 0 1 2.066-.502 4.9 4.9 0 0 1 2.089.395 5.15 5.15 0 0 1 2.926 2.818q.473.966.5 2.065a4.9 4.9 0 0 1-.394 2.09 5.3 5.3 0 0 1-1.096 1.74 5.6 5.6 0 0 1-1.682 1.143 4.9 4.9 0 0 1-2.066.502 4.9 4.9 0 0 1-2.089-.394 5.6 5.6 0 0 1-1.739-1.056 5.3 5.3 0 0 1-1.184-1.681 5.35 5.35 0 0 1-.461-2.067M69.159 6.959l19.061-.492.255 9.857-8.554.22.088 3.38 8.553-.22.254 9.857-8.553.22.202 7.82-10.509.272zm19.768-.51 10.55-.273.797 30.915-10.55.272zm11.456-.296 10.508-.271.543 21.057 8.554-.22.254 9.856-19.062.492zm19.49-.503 14.377-.371 4.033 15.71 3.258-15.898 13.971-.36.797 30.914-9.246.238-.438-16.984-3.757 17.093-8.797.227-4.634-16.877.438 16.985-9.205.237zm50.973 30.272q-3.666.094-6.343-.978-2.678-1.112-4.433-2.78-1.755-1.706-2.663-3.721-.867-2.016-.952-3.725l11.241-.29q.018.693.316 1.174.297.48.713.796.415.275.867.426.451.11.777.103.611-.016 1.054-.231a3.1 3.1 0 0 0 .8-.592q.317-.333.471-.705.193-.412.183-.779-.015-.61-.676-.92-.66-.308-1.724-.485a32 32 0 0 0-2.415-.386 24 24 0 0 1-2.662-.502 27 27 0 0 1-2.753-.866 10.4 10.4 0 0 1-2.645-1.44 8.5 8.5 0 0 1-2.015-2.271q-.81-1.365-.86-3.32-.063-2.445.783-4.381a8.85 8.85 0 0 1 2.564-3.327q1.716-1.389 4.142-2.145 2.466-.798 5.561-.877 2.892-.074 5.233.598 2.381.673 4.087 2.014a9.7 9.7 0 0 1 2.694 3.314q.987 1.93 1.173 4.412l-10.875.28q-.025-.976-.614-1.695-.549-.72-1.648-.691a2.5 2.5 0 0 0-1.534.569 1.55 1.55 0 0 0-.618 1.32q.012.49.389.887.377.357 1.2.703.823.304 2.176.595 1.393.29 3.357.566 2.782.417 4.516 1.27 1.733.81 2.7 1.967a6.5 6.5 0 0 1 1.33 2.575q.362 1.416.403 3.005.048 1.833-.679 3.686-.687 1.81-2.319 3.32-1.592 1.51-4.134 2.47-2.544.963-6.168 1.057"/></g><g clip-path="url(#c)" filter="url(#d)"><path fill="#d9e73c" d="M4.903 3.197h12.875q3.219 0 6.03 1.222 2.853 1.182 4.93 3.3 2.12 2.078 3.341 4.93 1.223 2.811 1.223 6.03t-1.223 6.03a15.8 15.8 0 0 1-3.34 4.93q-2.08 2.079-4.93 3.3-2.812 1.182-6.03 1.182H4.902zM17.778 24.26q1.14 0 2.16-.407a6.1 6.1 0 0 0 1.833-1.182 5.8 5.8 0 0 0 1.223-1.793q.447-1.018.448-2.2 0-1.18-.448-2.2a5.8 5.8 0 0 0-1.223-1.793 5.2 5.2 0 0 0-1.833-1.181 5.3 5.3 0 0 0-2.16-.448h-2.363V24.26zM33.75 3.197h12.875q3.219 0 6.03 1.222 2.853 1.182 4.93 3.3 2.119 2.078 3.341 4.93 1.223 2.811 1.223 6.03t-1.223 6.03a15.8 15.8 0 0 1-3.34 4.93q-2.08 2.079-4.93 3.3-2.812 1.182-6.03 1.182H33.75zM46.625 24.26q1.14 0 2.16-.407a6.1 6.1 0 0 0 1.833-1.182 5.8 5.8 0 0 0 1.222-1.793q.45-1.018.449-2.2 0-1.18-.449-2.2a5.8 5.8 0 0 0-1.222-1.793 5.2 5.2 0 0 0-1.833-1.181 5.3 5.3 0 0 0-2.16-.448h-2.363V24.26zm13.545 4.97q0-1.1.407-2.077a5.15 5.15 0 0 1 2.852-2.893 4.9 4.9 0 0 1 2.078-.448q1.1 0 2.078.448a5.149 5.149 0 0 1 2.852 2.893q.45.978.449 2.078 0 1.1-.449 2.078a5.3 5.3 0 0 1-1.14 1.711 5.6 5.6 0 0 1-1.712 1.1 4.9 4.9 0 0 1-2.078.448q-1.1 0-2.078-.448a5.6 5.6 0 0 1-1.71-1.1 5.3 5.3 0 0 1-1.142-1.711 5.35 5.35 0 0 1-.407-2.078M71.788 3.198h19.068v9.86H82.3v3.381h8.556v9.86H82.3v7.823H71.788zm19.775 0h10.553V34.12H91.563zm11.46 0h10.511V24.26h8.557v9.86h-19.068zm19.496 0h14.383l3.626 15.808 3.667-15.808h13.975V34.12h-9.249v-16.99l-4.197 16.99h-8.8l-4.197-16.99v16.99h-9.208zm50.175 31.576q-3.666 0-6.315-1.14-2.648-1.183-4.359-2.894-1.712-1.751-2.567-3.789-.816-2.037-.856-3.748h11.245q0 .692.286 1.181.285.49.692.815.408.285.856.448.448.123.774.123.611 0 1.059-.204.49-.245.815-.57.326-.327.489-.693.204-.408.204-.774 0-.612-.652-.937t-1.711-.53a33 33 0 0 0-2.404-.448 24 24 0 0 1-2.649-.57 27 27 0 0 1-2.729-.938 10.4 10.4 0 0 1-2.608-1.507 8.5 8.5 0 0 1-1.956-2.323q-.774-1.385-.774-3.34 0-2.445.897-4.36a8.8 8.8 0 0 1 2.648-3.26q1.752-1.344 4.197-2.037 2.485-.733 5.581-.733 2.893 0 5.216.733 2.363.733 4.033 2.119a9.7 9.7 0 0 1 2.608 3.381q.938 1.956 1.059 4.442h-10.878a2.7 2.7 0 0 0-.571-1.712q-.53-.733-1.63-.733-.855 0-1.548.53a1.55 1.55 0 0 0-.652 1.303q0 .489.367.897.366.366 1.182.733.815.326 2.159.652a53 53 0 0 0 3.341.652q2.77.49 4.482 1.385 1.711.856 2.648 2.037a6.5 6.5 0 0 1 1.263 2.608q.326 1.426.326 3.015 0 1.834-.774 3.667-.733 1.793-2.404 3.26-1.63 1.466-4.196 2.363-2.568.896-6.194.896"/></g><g clip-path="url(#e)" filter="url(#f)"><path fill="#d9e73c" d="m6.069 2.293 12.873.238q3.218.06 6.006 1.334 2.83 1.234 4.868 3.39 2.08 2.118 3.25 4.991 1.17 2.834 1.11 6.052t-1.333 6.006a15.8 15.8 0 0 1-3.432 4.868q-2.115 2.04-4.99 3.208-2.832 1.13-6.05 1.07l-12.874-.238zm12.483 21.299a5.8 5.8 0 0 0 2.167-.367 6.1 6.1 0 0 0 1.855-1.148 5.8 5.8 0 0 0 1.255-1.77 5.4 5.4 0 0 0 .489-2.191 5.4 5.4 0 0 0-.408-2.208 5.8 5.8 0 0 0-1.188-1.815 5.2 5.2 0 0 0-1.812-1.216 5.3 5.3 0 0 0-2.15-.488l-2.363-.043-.207 11.202zM34.911 2.826l12.873.238q3.218.06 6.006 1.334 2.83 1.234 4.868 3.39 2.08 2.117 3.25 4.992 1.17 2.833 1.11 6.051t-1.333 6.007a15.8 15.8 0 0 1-3.432 4.867q-2.115 2.04-4.99 3.209-2.832 1.129-6.05 1.07l-12.874-.239zm12.483 21.3a5.8 5.8 0 0 0 2.167-.368 6.1 6.1 0 0 0 1.855-1.148 5.8 5.8 0 0 0 1.255-1.77 5.4 5.4 0 0 0 .489-2.191 5.4 5.4 0 0 0-.407-2.208 5.8 5.8 0 0 0-1.19-1.815 5.2 5.2 0 0 0-1.81-1.215 5.3 5.3 0 0 0-2.151-.489l-2.363-.043-.207 11.202zm13.451 5.22a5.35 5.35 0 0 1 .446-2.07 5.15 5.15 0 0 1 1.173-1.731 5.3 5.3 0 0 1 1.732-1.11 4.9 4.9 0 0 1 2.086-.409 4.9 4.9 0 0 1 2.069.487 5.15 5.15 0 0 1 2.798 2.945q.43.985.41 2.086a4.9 4.9 0 0 1-.487 2.069 5.3 5.3 0 0 1-1.172 1.69 5.6 5.6 0 0 1-1.731 1.068 4.9 4.9 0 0 1-2.086.41 4.9 4.9 0 0 1-2.07-.487 5.6 5.6 0 0 1-1.69-1.131 5.3 5.3 0 0 1-1.11-1.732 5.35 5.35 0 0 1-.368-2.086M72.942 3.528l19.065.353-.182 9.858-8.555-.158-.062 3.381 8.555.158-.183 9.859-8.554-.159-.145 7.822-10.51-.194zm19.772.366 10.551.195-.572 30.92-10.55-.196zm11.457.212 10.511.194-.39 21.06 8.555.159-.182 9.858-19.065-.352zm19.494.36 14.38.266 3.333 15.873 3.959-15.738 13.972.258-.571 30.92-9.247-.172.314-16.987-4.51 16.91-8.8-.163-3.881-17.065-.314 16.987-9.207-.17zm49.583 32.498q-3.666-.067-6.293-1.257-2.626-1.23-4.306-2.973-1.678-1.783-2.496-3.836-.777-2.052-.786-3.763l11.243.207q-.013.693.263 1.187t.678.828q.402.293.847.463.446.13.772.137.61.012 1.063-.184.494-.235.825-.555t.502-.684q.21-.404.218-.77.011-.611-.635-.949-.645-.337-1.701-.561a32 32 0 0 0-2.395-.493 24 24 0 0 1-2.638-.62q-1.296-.39-2.712-.986a10.4 10.4 0 0 1-2.579-1.556 8.5 8.5 0 0 1-1.912-2.358q-.749-1.4-.713-3.355.046-2.445.977-4.342a8.85 8.85 0 0 1 2.708-3.21q1.777-1.312 4.234-1.96 2.499-.687 5.594-.63 2.893.054 5.201.83 2.35.778 3.994 2.193a9.7 9.7 0 0 1 2.545 3.43q.9 1.972.977 4.46l-10.877-.202a2.7 2.7 0 0 0-.539-1.721q-.516-.744-1.616-.764a2.5 2.5 0 0 0-1.557.501 1.55 1.55 0 0 0-.676 1.292q-.01.489.35.903.36.373 1.168.755.808.34 2.147.692 1.378.351 3.328.713 2.761.54 4.455 1.468 1.695.887 2.611 2.086.915 1.199 1.214 2.63.3 1.433.27 3.02-.033 1.834-.841 3.653-.767 1.779-2.464 3.214-1.657 1.437-4.24 2.286t-6.208.781"/></g><g clip-path="url(#g)" filter="url(#h)"><path fill="#d9e73c" d="M2.756 2.737H15.63q3.219 0 6.03 1.222 2.852 1.182 4.93 3.3 2.119 2.078 3.34 4.93 1.223 2.811 1.223 6.03t-1.222 6.03a15.8 15.8 0 0 1-3.341 4.93q-2.078 2.079-4.93 3.3-2.811 1.182-6.03 1.182H2.756zM15.63 23.8q1.14 0 2.16-.407a6.1 6.1 0 0 0 1.833-1.182 5.8 5.8 0 0 0 1.222-1.793q.448-1.018.448-2.2 0-1.181-.448-2.2a5.8 5.8 0 0 0-1.222-1.793 5.2 5.2 0 0 0-1.834-1.181 5.3 5.3 0 0 0-2.16-.448h-2.362V23.8zM31.603 2.737h12.875q3.219 0 6.03 1.222 2.851 1.182 4.93 3.3 2.119 2.078 3.34 4.93 1.224 2.811 1.223 6.03t-1.222 6.03a15.8 15.8 0 0 1-3.341 4.93q-2.079 2.079-4.93 3.3-2.811 1.182-6.03 1.182H31.603zM44.478 23.8q1.14 0 2.16-.407a6.1 6.1 0 0 0 1.833-1.182 5.8 5.8 0 0 0 1.222-1.793q.448-1.018.448-2.2 0-1.181-.448-2.2a5.8 5.8 0 0 0-1.222-1.793 5.2 5.2 0 0 0-1.834-1.181 5.3 5.3 0 0 0-2.16-.448h-2.362V23.8zm13.545 4.97q0-1.1.407-2.077a5.15 5.15 0 0 1 2.852-2.893 4.9 4.9 0 0 1 2.078-.448q1.1 0 2.078.448a5.15 5.15 0 0 1 2.852 2.893 4.9 4.9 0 0 1 .448 2.078 4.9 4.9 0 0 1-.448 2.078 5.3 5.3 0 0 1-1.14 1.711 5.6 5.6 0 0 1-1.712 1.1 4.9 4.9 0 0 1-2.078.448q-1.1 0-2.078-.448a5.6 5.6 0 0 1-1.711-1.1 5.3 5.3 0 0 1-1.141-1.711 5.35 5.35 0 0 1-.407-2.078M69.64 2.738h19.068v9.86h-8.556v3.381h8.556v9.86h-8.556v7.823H69.64zm19.775 0h10.553V33.66H89.416zm11.459 0h10.512V23.8h8.556v9.86h-19.068zm19.497 0h14.382l3.626 15.808 3.667-15.808h13.975V33.66h-9.248v-16.99l-4.197 16.99h-8.801l-4.196-16.99v16.99h-9.208zm50.175 31.576q-3.667 0-6.315-1.14-2.649-1.182-4.36-2.894-1.711-1.751-2.567-3.789-.815-2.037-.855-3.748h11.245q0 .692.285 1.181t.693.815q.407.285.855.448.448.123.775.123.61 0 1.059-.204.488-.245.815-.57.326-.327.489-.693.203-.408.203-.774 0-.612-.652-.937-.651-.326-1.711-.53a32 32 0 0 0-2.404-.448 24 24 0 0 1-2.648-.57 27 27 0 0 1-2.73-.938q-1.426-.57-2.607-1.507a8.5 8.5 0 0 1-1.956-2.323q-.774-1.385-.774-3.34 0-2.445.896-4.36a8.85 8.85 0 0 1 2.648-3.26q1.752-1.344 4.197-2.037 2.486-.733 5.582-.733 2.893 0 5.215.733 2.363.733 4.034 2.119a9.7 9.7 0 0 1 2.607 3.381q.937 1.956 1.06 4.442h-10.879q0-.978-.57-1.712-.53-.733-1.63-.733-.856 0-1.548.53-.652.489-.652 1.303 0 .489.367.897.366.367 1.181.733.815.326 2.16.652a53 53 0 0 0 3.341.652q2.77.49 4.481 1.385 1.711.856 2.649 2.037a6.5 6.5 0 0 1 1.263 2.608q.326 1.426.326 3.015 0 1.834-.774 3.667-.734 1.793-2.404 3.26-1.63 1.466-4.197 2.363-2.567.896-6.193.896"/></g><g clip-path="url(#i)" filter="url(#j)"><path fill="#d9e73c" d="m1.4 1.892 12.874.12q3.219.03 6.018 1.28 2.84 1.207 4.9 3.345 2.099 2.098 3.294 4.961 1.196 2.823 1.166 6.041t-1.279 6.019a15.8 15.8 0 0 1-3.386 4.898q-2.098 2.059-4.961 3.255-2.822 1.155-6.04 1.125l-12.875-.12zm12.677 21.184a5.8 5.8 0 0 0 2.163-.387 6.1 6.1 0 0 0 1.845-1.164 5.8 5.8 0 0 0 1.239-1.782 5.4 5.4 0 0 0 .468-2.196 5.4 5.4 0 0 0-.427-2.204 5.8 5.8 0 0 0-1.206-1.804 5.2 5.2 0 0 0-1.822-1.198 5.3 5.3 0 0 0-2.155-.469l-2.363-.022-.105 11.204zM30.245 2.162l12.874.12q3.219.03 6.019 1.278 2.841 1.209 4.899 3.346 2.1 2.099 3.295 4.961 1.196 2.823 1.166 6.042t-1.279 6.018a15.8 15.8 0 0 1-3.387 4.899q-2.097 2.058-4.96 3.254-2.822 1.155-6.041 1.125l-12.875-.12zm12.678 21.183a5.8 5.8 0 0 0 2.163-.387 6.1 6.1 0 0 0 1.844-1.164 5.8 5.8 0 0 0 1.24-1.782 5.4 5.4 0 0 0 .468-2.195 5.4 5.4 0 0 0-.428-2.205 5.8 5.8 0 0 0-1.205-1.804 5.2 5.2 0 0 0-1.823-1.198 5.3 5.3 0 0 0-2.155-.469l-2.363-.022-.104 11.204zm13.498 5.097a5.4 5.4 0 0 1 .426-2.074 5.15 5.15 0 0 1 2.88-2.866 4.9 4.9 0 0 1 2.081-.428 4.9 4.9 0 0 1 2.074.467 5.151 5.151 0 0 1 2.825 2.92 4.9 4.9 0 0 1 .429 2.081 4.9 4.9 0 0 1-.468 2.074 5.3 5.3 0 0 1-1.157 1.7 5.6 5.6 0 0 1-1.721 1.085 4.9 4.9 0 0 1-2.082.428 4.9 4.9 0 0 1-2.074-.467 5.6 5.6 0 0 1-1.7-1.116 5.25 5.25 0 0 1-1.125-1.722 5.35 5.35 0 0 1-.388-2.082M68.28 2.517l19.068.178-.092 9.86-8.556-.08-.032 3.38 8.556.08-.092 9.86-8.556-.08-.073 7.823-10.511-.098zm19.775.184 10.552.099-.289 30.923-10.552-.099zm11.458.107 10.512.098-.197 21.064 8.556.08-.092 9.86-19.067-.179zm19.496.182 14.382.134 3.478 15.842 3.815-15.774 13.974.13-.288 30.924-9.249-.086.159-16.99-4.355 16.95-8.8-.082-4.038-17.028-.159 16.99-9.208-.087zm49.878 32.043q-3.666-.033-6.304-1.2-2.637-1.205-4.332-2.933-1.695-1.768-2.532-3.813-.796-2.044-.82-3.756l11.245.105q-.007.693.274 1.184.28.492.685.822.404.288.851.456.447.126.773.13.61.004 1.061-.195.492-.24.82-.562.33-.324.496-.689a1.75 1.75 0 0 0 .211-.772q.005-.61-.643-.943-.65-.331-1.707-.546a32 32 0 0 0-2.399-.47 24 24 0 0 1-2.643-.595 27 27 0 0 1-2.721-.963 10.4 10.4 0 0 1-2.594-1.531 8.5 8.5 0 0 1-1.933-2.341q-.762-1.392-.743-3.348.022-2.445.937-4.351a8.84 8.84 0 0 1 2.678-3.235q1.765-1.327 4.216-1.998 2.492-.71 5.588-.681 2.893.027 5.208.782 2.356.756 4.014 2.156a9.7 9.7 0 0 1 2.576 3.406q.92 1.965 1.018 4.45l-10.878-.1a2.7 2.7 0 0 0-.555-1.717q-.522-.738-1.623-.749a2.5 2.5 0 0 0-1.553.516 1.55 1.55 0 0 0-.664 1.297q-.004.489.359.9.363.37 1.174.744.812.334 2.153.672a53 53 0 0 0 3.335.683q2.766.516 4.469 1.428 1.703.87 2.629 2.061a6.5 6.5 0 0 1 1.239 2.62q.313 1.428.298 3.017-.017 1.834-.809 3.66-.75 1.786-2.434 3.237-1.643 1.452-4.218 2.324t-6.202.838"/></g><defs><clipPath id="a"><path fill="#fff" d="m2.65 39.765 181.799-4.691-.13-5.015L2.52 34.75z"/></clipPath><clipPath id="c"><path fill="#fff" d="M4.146 30.872h181.98V19.498H4.146z"/></clipPath><clipPath id="e"><path fill="#fff" d="m5.469 10.516 181.829 3.36-.156 8.433-181.83-3.36z"/></clipPath><clipPath id="g"><path fill="#fff" d="M2.308 10.969h181.86v-2.3H2.308z"/></clipPath><clipPath id="i"><path fill="#fff" d="M.969 0 182.82 1.697l-.073 7.82L.896 7.82z"/></clipPath><filter id="b" width="184.137" height="11.914" x="1.416" y="29.568" color-interpolation-filters="sRGB" filterUnits="userSpaceOnUse"><feFlood flood-opacity="0" result="BackgroundImageFix"/><feColorMatrix in="SourceAlpha" result="hardAlpha" values="0 0 0 0 0 0 0 0 0 0 0 0 0 0 0 0 0 0 127 0"/><feOffset dy=".613"/><feGaussianBlur stdDeviation=".552"/><feComposite in2="hardAlpha" operator="out"/><feColorMatrix values="0 0 0 0 0.259703 0 0 0 0 0.276743 0 0 0 0 0.068614 0 0 0 0.26 0"/><feBlend in2="BackgroundImageFix" result="effect1_dropShadow_1290_2472"/><feBlend in="SourceGraphic" in2="effect1_dropShadow_1290_2472" result="shape"/></filter><filter id="d" width="184.188" height="13.582" x="3.041" y="19.007" color-interpolation-filters="sRGB" filterUnits="userSpaceOnUse"><feFlood flood-opacity="0" result="BackgroundImageFix"/><feColorMatrix in="SourceAlpha" result="hardAlpha" values="0 0 0 0 0 0 0 0 0 0 0 0 0 0 0 0 0 0 127 0"/><feOffset dy=".613"/><feGaussianBlur stdDeviation=".552"/><feComposite in2="hardAlpha" operator="out"/><feColorMatrix values="0 0 0 0 0.259703 0 0 0 0 0.276743 0 0 0 0 0.068614 0 0 0 0.26 0"/><feBlend in2="BackgroundImageFix" result="effect1_dropShadow_1290_2472"/><feBlend in="SourceGraphic" in2="effect1_dropShadow_1290_2472" result="shape"/></filter><filter id="f" width="184.193" height="14.002" x="4.208" y="10.025" color-interpolation-filters="sRGB" filterUnits="userSpaceOnUse"><feFlood flood-opacity="0" result="BackgroundImageFix"/><feColorMatrix in="SourceAlpha" result="hardAlpha" values="0 0 0 0 0 0 0 0 0 0 0 0 0 0 0 0 0 0 127 0"/><feOffset dy=".613"/><feGaussianBlur stdDeviation=".552"/><feComposite in2="hardAlpha" operator="out"/><feColorMatrix values="0 0 0 0 0.259703 0 0 0 0 0.276743 0 0 0 0 0.068614 0 0 0 0.26 0"/><feBlend in2="BackgroundImageFix" result="effect1_dropShadow_1290_2472"/><feBlend in="SourceGraphic" in2="effect1_dropShadow_1290_2472" result="shape"/></filter><filter id="h" width="184.068" height="4.508" x="1.204" y="8.178" color-interpolation-filters="sRGB" filterUnits="userSpaceOnUse"><feFlood flood-opacity="0" result="BackgroundImageFix"/><feColorMatrix in="SourceAlpha" result="hardAlpha" values="0 0 0 0 0 0 0 0 0 0 0 0 0 0 0 0 0 0 127 0"/><feOffset dy=".613"/><feGaussianBlur stdDeviation=".552"/><feComposite in2="hardAlpha" operator="out"/><feColorMatrix values="0 0 0 0 0.259703 0 0 0 0 0.276743 0 0 0 0 0.068614 0 0 0 0.26 0"/><feBlend in2="BackgroundImageFix" result="effect1_dropShadow_1290_2472"/><feBlend in="SourceGraphic" in2="effect1_dropShadow_1290_2472" result="shape"/></filter><filter id="j" width="184.134" height="11.725" x="-.209" y="-.491" color-interpolation-filters="sRGB" filterUnits="userSpaceOnUse"><feFlood flood-opacity="0" result="BackgroundImageFix"/><feColorMatrix in="SourceAlpha" result="hardAlpha" values="0 0 0 0 0 0 0 0 0 0 0 0 0 0 0 0 0 0 127 0"/><feOffset dy=".613"/><feGaussianBlur stdDeviation=".552"/><feComposite in2="hardAlpha" operator="out"/><feColorMatrix values="0 0 0 0 0.259703 0 0 0 0 0.276743 0 0 0 0 0.068614 0 0 0 0.26 0"/><feBlend in2="BackgroundImageFix" result="effect1_dropShadow_1290_2472"/><feBlend in="SourceGraphic" in2="effect1_dropShadow_1290_2472" result="shape"/></filter></defs></svg>