<svg width="15" height="16" viewBox="0 0 15 16" fill="none" xmlns="http://www.w3.org/2000/svg">
<path d="M11.1892 2.83356L11.7447 2.32966L11.7387 2.323L11.7325 2.31648L11.1892 2.83356ZM11.1416 11.1414L11.6581 11.6852L11.6651 11.6785L11.6719 11.6717L11.1416 11.1414ZM10.9213 11.3506L11.423 11.9081L11.4305 11.9014L11.4378 11.8944L10.9213 11.3506ZM2.60519 10.9701L2.06197 11.4872L2.06835 11.4939L2.07489 11.5005L2.60519 10.9701ZM2.38629 10.7402L1.83075 11.244L1.83683 11.2507L1.84307 11.2573L2.38629 10.7402ZM2.2247 2.65402L1.68091 2.13751L1.67395 2.14483L1.66719 2.15234L2.2247 2.65402ZM2.43393 2.43374L1.90364 1.90338L1.8968 1.91021L1.89014 1.91723L2.43393 2.43374ZM10.971 2.6043L11.5143 2.08723L11.5079 2.08052L11.5013 2.07397L10.971 2.6043ZM10.2639 3.31141L10.7943 2.78112L10.7942 2.78108L10.2639 3.31141ZM3.14104 3.14085L2.61076 2.61047L2.61066 2.61057L3.14104 3.14085ZM3.31229 10.263L2.78196 10.7933L2.782 10.7934L3.31229 10.263ZM10.4345 10.4343L10.9647 10.9646L10.9648 10.9646L10.4345 10.4343ZM14.039 13.7447L14.6651 13.3318L14.6433 13.2987L14.6181 13.2681L14.039 13.7447ZM13.9748 14.3738L14.5052 14.9041L14.5052 14.9041L13.9748 14.3738ZM13.3458 14.438L12.8692 15.0171L12.8998 15.0423L12.9328 15.0641L13.3458 14.438ZM13.2677 14.3738L12.7374 14.9041L12.7631 14.9298L12.7911 14.9529L13.2677 14.3738ZM10.5884 11.6945L10.0581 11.1642L9.52779 11.6945L10.0581 12.2248L10.5884 11.6945ZM11.2956 10.9874L11.8259 10.4571L11.2956 9.92673L10.7652 10.4571L11.2956 10.9874ZM13.9748 13.6667L14.5539 13.1901L14.5308 13.162L14.5052 13.1363L13.9748 13.6667ZM11.1892 2.83356L10.6337 3.33747C12.5724 5.47466 12.5463 8.67569 10.6112 10.6111L11.1416 11.1414L11.6719 11.6717C14.2122 9.131 14.1825 5.01709 11.7447 2.32966L11.1892 2.83356ZM11.1416 11.1414L10.625 10.5976L10.4048 10.8068L10.9213 11.3506L11.4378 11.8944L11.6581 11.6852L11.1416 11.1414ZM10.9213 11.3506L10.4196 10.7931C8.40726 12.6039 5.20015 12.5042 3.13548 10.4398L2.60519 10.9701L2.07489 11.5005C4.66912 14.0944 8.78201 14.2846 11.423 11.9081L10.9213 11.3506ZM2.60519 10.9701L3.14841 10.453L2.92951 10.2231L2.38629 10.7402L1.84307 11.2573L2.06197 11.4872L2.60519 10.9701ZM2.38629 10.7402L2.94182 10.2363C1.06631 8.16849 1.02958 5.10336 2.78221 3.15571L2.2247 2.65402L1.66719 2.15234C-0.632446 4.70787 -0.52883 8.64251 1.83075 11.244L2.38629 10.7402ZM2.2247 2.65402L2.76849 3.17054L2.97772 2.95026L2.43393 2.43374L1.89014 1.91723L1.68091 2.13751L2.2247 2.65402ZM2.43393 2.43374L2.96423 2.96411C4.96183 0.966788 8.30904 1.003 10.4407 3.13463L10.971 2.6043L11.5013 2.07397C8.82417 -0.603191 4.52647 -0.719091 1.90364 1.90338L2.43393 2.43374ZM10.971 2.6043L10.4277 3.12138L10.646 3.35064L11.1892 2.83356L11.7325 2.31648L11.5143 2.08723L10.971 2.6043ZM10.2639 3.31141L10.7942 2.78108C8.47942 0.466275 4.81548 0.406127 2.61076 2.61047L3.14104 3.14085L3.67132 3.67123C5.2532 2.08962 7.96677 2.07494 9.73357 3.84174L10.2639 3.31141ZM3.14104 3.14085L2.61066 2.61057C0.406182 4.81543 0.467294 8.47868 2.78196 10.7933L3.31229 10.263L3.84262 9.73269C2.07568 7.96575 2.08995 5.25288 3.67142 3.67113L3.14104 3.14085ZM3.31229 10.263L2.782 10.7934C5.09663 13.1077 8.75994 13.1691 10.9647 10.9646L10.4345 10.4343L9.90417 9.90389C8.32257 11.4852 5.60959 11.4994 3.84258 9.73265L3.31229 10.263ZM10.4345 10.4343L10.9648 10.9646C13.1691 8.75988 13.1087 5.09589 10.7943 2.78112L10.2639 3.31141L9.73353 3.8417C11.5001 5.60857 11.4856 8.32224 9.90408 9.90398L10.4345 10.4343ZM14.039 13.7447L13.4129 14.1576C13.3489 14.0604 13.3584 13.9296 13.4445 13.8435L13.9748 14.3738L14.5052 14.9041C14.9328 14.4764 14.9852 13.8171 14.6651 13.3318L14.039 13.7447ZM13.9748 14.3738L13.4445 13.8434C13.5306 13.7573 13.6615 13.7478 13.7587 13.8119L13.3458 14.438L12.9328 15.0641C13.4181 15.3841 14.0774 15.3318 14.5052 14.9041L13.9748 14.3738ZM13.3458 14.438L13.8224 13.8589L13.7443 13.7947L13.2677 14.3738L12.7911 14.9529L12.8692 15.0171L13.3458 14.438ZM13.2677 14.3738L13.7981 13.8434L11.1188 11.1642L10.5884 11.6945L10.0581 12.2248L12.7374 14.9041L13.2677 14.3738ZM10.5884 11.6945L11.1188 12.2248L11.8259 11.5177L11.2956 10.9874L10.7652 10.4571L10.0581 11.1642L10.5884 11.6945ZM11.2956 10.9874L10.7652 11.5177L13.4445 14.197L13.9748 13.6667L14.5052 13.1363L11.8259 10.4571L11.2956 10.9874ZM13.9748 13.6667L13.3957 14.1433L13.46 14.2213L14.039 13.7447L14.6181 13.2681L14.5539 13.1901L13.9748 13.6667Z" fill="#D9E73C"/>
</svg>
