<svg width="20" height="21" viewBox="0 0 20 21" fill="none" xmlns="http://www.w3.org/2000/svg">
<path d="M13.428 3.05057L13.9583 2.52024L13.9583 2.52023L13.428 3.05057ZM13.64 13.6399L14.1703 14.1702L14.1704 14.1702L13.64 13.6399ZM3.04998 13.4286L2.50662 13.9456L2.51305 13.9523L2.51964 13.9589L3.04998 13.4286ZM2.77929 13.1441L2.22381 13.648L2.22979 13.6546L2.23593 13.6611L2.77929 13.1441ZM2.83867 2.83857L2.3084 2.30819L2.30834 2.30824L2.83867 2.83857ZM12.7209 3.75768L13.2512 3.22735L13.2512 3.22733L12.7209 3.75768ZM3.54578 3.54568L3.01551 3.01528L3.01545 3.01535L3.54578 3.54568ZM3.75708 12.7215L3.22674 13.2518L3.22675 13.2518L3.75708 12.7215ZM12.9329 12.9328L13.4632 13.4631L13.4633 13.4631L12.9329 12.9328ZM18.8107 18.6131L19.4367 18.2L19.4149 18.167L19.3898 18.1365L18.8107 18.6131ZM18.7465 19.2422L19.2768 19.7725L19.2769 19.7724L18.7465 19.2422ZM18.1174 19.3064L17.6408 19.8855L17.6713 19.9106L17.7043 19.9324L18.1174 19.3064ZM18.0394 19.2422L17.5091 19.7725L17.5347 19.7982L17.5628 19.8213L18.0394 19.2422ZM13.0392 14.2421L12.5089 13.7117L11.9786 14.2421L12.5089 14.7724L13.0392 14.2421ZM13.7463 13.5349L14.2767 13.0046L13.7463 12.4743L13.216 13.0046L13.7463 13.5349ZM18.7465 18.5351L19.3256 18.0585L19.3025 18.0305L19.2768 18.0048L18.7465 18.5351ZM13.428 3.05057L12.8977 3.5809C15.6075 6.29072 15.6622 10.5565 13.1096 13.1096L13.64 13.6399L14.1704 14.1702C17.3482 10.9917 17.2136 5.77551 13.9583 2.52024L13.428 3.05057ZM13.64 13.6399L13.1097 13.1096C10.5566 15.6627 6.29028 15.6082 3.58031 12.8983L3.04998 13.4286L2.51964 13.9589C5.77514 17.2144 10.992 17.3486 14.1703 14.1702L13.64 13.6399ZM3.04998 13.4286L3.59333 12.9116L3.32264 12.6271L2.77929 13.1441L2.23593 13.6611L2.50662 13.9456L3.04998 13.4286ZM2.77929 13.1441L3.33477 12.6402C0.869568 9.92277 0.89537 5.84254 3.369 3.3689L2.83867 2.83857L2.30834 2.30824C-0.770547 5.38713 -0.740612 10.3803 2.22381 13.648L2.77929 13.1441ZM2.83867 2.83857L3.36895 3.36896C5.92206 0.816393 10.1879 0.871165 12.8977 3.58091L13.428 3.05057L13.9583 2.52023C10.7031 -0.734928 5.48682 -0.869562 2.3084 2.30819L2.83867 2.83857ZM12.7209 3.75768L13.2512 3.22733C10.3586 0.334824 5.77611 0.255381 3.01551 3.01528L3.54578 3.54568L4.07604 4.07608C6.21316 1.9395 9.8453 1.94282 12.1906 4.28802L12.7209 3.75768ZM3.54578 3.54568L3.01545 3.01535C0.254946 5.77585 0.333996 10.359 3.22674 13.2518L3.75708 12.7215L4.28742 12.1912C1.94208 9.84574 1.93903 6.21309 4.07611 4.07601L3.54578 3.54568ZM3.75708 12.7215L3.22675 13.2518C6.11962 16.1447 10.7027 16.2237 13.4632 13.4631L12.9329 12.9328L12.4026 12.4025C10.2654 14.5396 6.63283 14.5366 4.28741 12.1912L3.75708 12.7215ZM12.9329 12.9328L13.4633 13.4631C16.2232 10.7024 16.1439 6.11998 13.2512 3.22735L12.7209 3.75768L12.1906 4.28801C14.5358 6.63327 14.5391 10.2654 12.4025 12.4025L12.9329 12.9328ZM18.8107 18.6131L18.1848 19.0263C18.1204 18.9287 18.1303 18.7978 18.2161 18.712L18.7465 19.2422L19.2769 19.7724C19.7042 19.345 19.7572 18.6856 19.4367 18.2L18.8107 18.6131ZM18.7465 19.2422L18.2162 18.7119C18.3021 18.6259 18.4331 18.6162 18.5305 18.6805L18.1174 19.3064L17.7043 19.9324C18.1898 20.2528 18.8492 20.2001 19.2768 19.7725L18.7465 19.2422ZM18.1174 19.3064L18.594 18.7273L18.516 18.6631L18.0394 19.2422L17.5628 19.8213L17.6408 19.8855L18.1174 19.3064ZM18.0394 19.2422L18.5697 18.7119L13.5696 13.7117L13.0392 14.2421L12.5089 14.7724L17.5091 19.7725L18.0394 19.2422ZM13.0392 14.2421L13.5696 14.7724L14.2767 14.0653L13.7463 13.5349L13.216 13.0046L12.5089 13.7117L13.0392 14.2421ZM13.7463 13.5349L13.216 14.0653L18.2162 19.0654L18.7465 18.5351L19.2768 18.0048L14.2767 13.0046L13.7463 13.5349ZM18.7465 18.5351L18.1674 19.0117L18.2316 19.0897L18.8107 18.6131L19.3898 18.1365L19.3256 18.0585L18.7465 18.5351Z" fill="#D9E73C"/>
</svg>
