<svg width="20" height="20" viewBox="0 0 20 20" fill="none" xmlns="http://www.w3.org/2000/svg">
<path d="M14.9213 3.89509L15.4768 3.3912L15.4706 3.38433L15.4642 3.37762L14.9213 3.89509ZM14.8599 14.5811L15.3754 15.1258L15.3829 15.1187L15.3902 15.1114L14.8599 14.5811ZM14.5754 14.8504L15.077 15.408L15.0841 15.4016L15.0909 15.3951L14.5754 14.8504ZM3.87899 14.3615L3.3361 14.879L3.34232 14.8855L3.34869 14.8919L3.87899 14.3615ZM3.59794 14.0667L3.04247 14.5706L3.04867 14.5774L3.05505 14.5841L3.59794 14.0667ZM3.39009 3.66514L2.84542 3.14955L2.83889 3.15645L2.83253 3.16351L3.39009 3.66514ZM3.6594 3.38064L3.12907 2.85031L3.1218 2.85758L3.11473 2.86505L3.6594 3.38064ZM14.6403 3.60023L15.1832 3.08277L15.177 3.07626L15.1706 3.0699L14.6403 3.60023ZM13.9332 4.30734L14.4635 3.77704L14.4635 3.77701L13.9332 4.30734ZM4.36651 4.08775L3.83618 3.55742L3.83615 3.55744L4.36651 4.08775ZM4.5861 13.6544L4.05576 14.1847L4.0558 14.1848L4.5861 13.6544ZM14.1528 13.874L14.6831 14.4043L14.6831 14.4043L14.1528 13.874ZM18.4037 17.9302L18.9347 17.4006L18.934 17.3999L18.4037 17.9302ZM18.4037 18.6373L18.9339 19.1677L18.934 19.1676L18.4037 18.6373ZM17.6966 18.6373L17.1662 19.1676L17.1669 19.1683L17.6966 18.6373ZM14.2501 15.1908L13.7198 14.6605L13.1895 15.1908L13.7198 15.7212L14.2501 15.1908ZM14.9572 14.4837L15.4876 13.9534L14.9572 13.4231L14.4269 13.9534L14.9572 14.4837ZM14.9213 3.89509L14.3658 4.39898C16.931 7.22697 16.9055 11.4748 14.3295 14.0508L14.8599 14.5811L15.3902 15.1114C18.5715 11.9301 18.5411 6.76936 15.4768 3.3912L14.9213 3.89509ZM14.8599 14.5811L14.3443 14.0364L14.0598 14.3057L14.5754 14.8504L15.0909 15.3951L15.3754 15.1258L14.8599 14.5811ZM14.5754 14.8504L14.0737 14.2929C11.3951 16.7028 7.14057 16.5621 4.40929 13.8311L3.87899 14.3615L3.34869 14.8919C6.60977 18.1526 11.77 18.3832 15.077 15.408L14.5754 14.8504ZM3.87899 14.3615L4.42188 13.844L4.14083 13.5492L3.59794 14.0667L3.05505 14.5841L3.3361 14.879L3.87899 14.3615ZM3.59794 14.0667L4.15342 13.5627C1.67138 10.8268 1.61508 6.75942 3.94765 4.16677L3.39009 3.66514L2.83253 3.16351C-0.0467096 6.36379 0.0759921 11.3007 3.04247 14.5706L3.59794 14.0667ZM3.39009 3.66514L3.93476 4.18073L4.20407 3.89623L3.6594 3.38064L3.11473 2.86505L2.84542 3.14955L3.39009 3.66514ZM3.6594 3.38064L4.18973 3.91097C6.84863 1.25207 11.2897 1.31037 14.1099 4.13056L14.6403 3.60023L15.1706 3.0699C11.805 -0.295696 6.41334 -0.433957 3.12907 2.85031L3.6594 3.38064ZM14.6403 3.60023L14.0974 4.11769L14.3784 4.41255L14.9213 3.89509L15.4642 3.37762L15.1832 3.08277L14.6403 3.60023ZM13.9332 4.30734L14.4635 3.77701C11.4606 0.774092 6.70264 0.690949 3.83618 3.55742L4.36651 4.08775L4.89684 4.61808C7.13969 2.37523 10.9471 2.38198 13.4028 4.83767L13.9332 4.30734ZM4.36651 4.08775L3.83615 3.55744C0.969927 6.4239 1.05289 11.1819 4.05576 14.1847L4.5861 13.6544L5.11643 13.1241C2.66083 10.6685 2.65415 6.86095 4.89686 4.61806L4.36651 4.08775ZM4.5861 13.6544L4.0558 14.1848C7.05864 17.1872 11.8167 17.2705 14.6831 14.4043L14.1528 13.874L13.6224 13.3436C11.3797 15.5862 7.57205 15.5794 5.11639 13.124L4.5861 13.6544ZM14.1528 13.874L14.6831 14.4043C17.5495 11.5379 17.466 6.77993 14.4635 3.77704L13.9332 4.30734L13.4028 4.83763C15.8582 7.29338 15.8651 11.101 13.6224 13.3437L14.1528 13.874ZM18.4037 17.9302L17.8726 18.4598C17.7762 18.3631 17.7749 18.2055 17.8733 18.107L18.4037 18.6373L18.934 19.1676C19.4227 18.6789 19.4207 17.8879 18.9347 17.4006L18.4037 17.9302ZM18.4037 18.6373L17.8734 18.1069C17.9718 18.0085 18.1294 18.0097 18.2262 18.1063L17.6966 18.6373L17.1669 19.1683C17.6543 19.6544 18.4453 19.6562 18.9339 19.1677L18.4037 18.6373ZM17.6966 18.6373L18.2269 18.107L14.7804 14.6605L14.2501 15.1908L13.7198 15.7212L17.1662 19.1676L17.6966 18.6373ZM14.2501 15.1908L14.7804 15.7212L15.4876 15.0141L14.9572 14.4837L14.4269 13.9534L13.7198 14.6605L14.2501 15.1908ZM14.9572 14.4837L14.4269 15.0141L17.8733 18.4605L18.4037 17.9302L18.934 17.3999L15.4876 13.9534L14.9572 14.4837Z" fill="#28B0FF"/>
</svg>
