<svg width="20" height="19" viewBox="0 0 20 19" fill="none" xmlns="http://www.w3.org/2000/svg">
<path fill-rule="evenodd" clip-rule="evenodd" d="M19.5 4.75C19.5 3.49 19 2.282 18.109 1.391C17.218 0.5 16.01 0 14.75 0C11.773 0 7.727 0 4.75 0C3.49 0 2.282 0.5 1.391 1.391C0.5 2.282 0 3.49 0 4.75C0 9.776 0 17.75 0 17.75C0 18.027 0.152 18.281 0.396 18.411C0.64 18.542 0.936 18.527 1.166 18.374C1.166 18.374 3.192 17.023 3.914 16.542C3.955 16.515 4.003 16.5 4.053 16.5C5.39 16.5 10.874 16.5 14.75 16.5C16.01 16.5 17.218 16 18.109 15.109C19 14.218 19.5 13.01 19.5 11.75V4.75ZM1.5 16.349L3.082 15.294C3.37 15.102 3.707 15 4.053 15C5.39 15 10.874 15 14.75 15C15.612 15 16.439 14.658 17.048 14.048C17.658 13.439 18 12.612 18 11.75V4.75C18 3.888 17.658 3.061 17.048 2.452C16.439 1.842 15.612 1.5 14.75 1.5C11.773 1.5 7.727 1.5 4.75 1.5C3.888 1.5 3.061 1.842 2.452 2.452C1.842 3.061 1.5 3.888 1.5 4.75V16.349Z" fill="#EFEEEA"/>
<path fill-rule="evenodd" clip-rule="evenodd" d="M6.25 7.5H13.25C13.664 7.5 14 7.164 14 6.75C14 6.336 13.664 6 13.25 6H6.25C5.836 6 5.5 6.336 5.5 6.75C5.5 7.164 5.836 7.5 6.25 7.5Z" fill="#EFEEEA"/>
<path fill-rule="evenodd" clip-rule="evenodd" d="M6.25 10.5H10.75C11.164 10.5 11.5 10.164 11.5 9.75C11.5 9.336 11.164 9 10.75 9H6.25C5.836 9 5.5 9.336 5.5 9.75C5.5 10.164 5.836 10.5 6.25 10.5Z" fill="#EFEEEA"/>
</svg>
