<svg width="14" height="21" viewBox="0 0 14 21" fill="none" xmlns="http://www.w3.org/2000/svg">
<path d="M14 8.2479V10.0025C14.0009 11.8542 13.2638 13.6317 11.9481 14.9501C11.3125 15.5903 10.5572 16.1025 9.7241 16.4582C9.09612 16.7263 8.43093 16.8997 7.75082 16.9725V19.516H10.8842C11.0834 19.516 11.2743 19.5942 11.4151 19.7333C11.5559 19.8725 11.635 20.0612 11.635 20.258C11.635 20.4548 11.5559 20.6435 11.4151 20.7827C11.2743 20.9218 11.0834 21 10.8842 21H3.11578C2.91665 21 2.72568 20.9218 2.58487 20.7827C2.44406 20.6435 2.36496 20.4548 2.36496 20.258C2.36496 20.0612 2.44406 19.8725 2.58487 19.7333C2.72568 19.5942 2.91665 19.516 3.11578 19.516H6.24918V16.9725C5.56909 16.8996 4.90392 16.7262 4.2759 16.4582C3.44279 16.1025 2.68749 15.5903 2.05189 14.9501C0.735903 13.6314 -0.00130219 11.8533 1.72676e-06 10.0011V8.24656C1.72468e-06 8.14904 0.0194398 8.05246 0.0572063 7.96235C0.0949727 7.87225 0.150328 7.79038 0.220111 7.72141C0.289894 7.65245 0.372739 7.59774 0.463915 7.56042C0.555091 7.5231 0.652814 7.50389 0.751502 7.50389C0.85019 7.50389 0.947912 7.5231 1.03909 7.56042C1.13026 7.59774 1.21311 7.65245 1.28289 7.72141C1.35268 7.79038 1.40803 7.87225 1.4458 7.96235C1.48356 8.05246 1.503 8.14904 1.503 8.24656V10.0011C1.49908 11.4638 2.08138 12.8685 3.12256 13.9081C3.62642 14.4206 4.22919 14.828 4.89521 15.1062C5.56122 15.3844 6.27694 15.5277 7 15.5277C7.72306 15.5277 8.43878 15.3844 9.10479 15.1062C9.77081 14.828 10.3736 14.4206 10.8774 13.9081C11.9184 12.8683 12.5006 11.4637 12.497 10.0011V8.24656C12.497 8.04959 12.5762 7.86069 12.7171 7.72141C12.858 7.58213 13.0492 7.50389 13.2485 7.50389C13.4478 7.50389 13.639 7.58213 13.7799 7.72141C13.9208 7.86069 14 8.05093 14 8.2479ZM3.3001 11.536C3.08954 11.0512 2.98206 10.5287 2.98432 10.0011V3.99274C2.98099 3.45983 3.08847 2.93192 3.3001 2.44176C3.71185 1.48265 4.48448 0.71909 5.45499 0.312167C5.95094 0.102913 6.48514 -0.00331099 7.0244 9.45505e-05C7.56105 -0.00362841 8.09266 0.102631 8.58567 0.312167C9.31106 0.622895 9.92808 1.13739 10.3601 1.79173C10.7921 2.44608 11.0201 3.21144 11.0157 3.99274L10.9994 10.0025C11.0026 11.0505 10.5854 12.057 9.8393 12.8017C9.47381 13.1612 9.04298 13.4493 8.56941 13.6509C8.0764 13.8604 7.54479 13.9667 7.00813 13.963C6.46889 13.9663 5.93471 13.86 5.43872 13.6509C4.47363 13.2492 3.70599 12.4901 3.3001 11.536Z" fill="#D9E73C"/>
</svg>
