<svg width="28" height="28" viewBox="0 0 28 28" fill="none" xmlns="http://www.w3.org/2000/svg">
<circle cx="14" cy="14" r="13.75" fill="#D9E73C10" fill-opacity="0.1" stroke="#D9E73C" stroke-width="0.5"/>
<g clip-path="url(#clip0_2338_1290)">
<g opacity="0.8">
<path d="M13.9993 4C13.5531 4 13.1914 4.36172 13.1914 4.80789V8.48473C13.1914 8.9309 13.5531 9.29262 13.9993 9.29262C14.4455 9.29262 14.8072 8.9309 14.8072 8.48473V4.80789C14.8072 4.36172 14.4455 4 13.9993 4Z" fill="#D9E73C"/>
</g>
<g opacity="0.4">
<path d="M13.9993 18.707C13.5531 18.707 13.1914 19.0687 13.1914 19.5149V23.1918C13.1914 23.638 13.5531 23.9996 13.9993 23.9996C14.4455 23.9996 14.8072 23.638 14.8072 23.1918V19.5149C14.8072 19.0688 14.4455 18.707 13.9993 18.707Z" fill="#D9E73C"/>
</g>
<g opacity="0.6">
<path d="M10.6719 9.53136L8.07054 6.92999C7.75507 6.61448 7.24351 6.61448 6.92804 6.92999C6.61253 7.24546 6.61253 7.75698 6.92804 8.07249L9.5294 10.6739C9.68714 10.8316 9.89394 10.9105 10.1007 10.9105C10.3075 10.9105 10.5142 10.8316 10.6719 10.6739C10.9874 10.3584 10.9874 9.84687 10.6719 9.53136Z" fill="#D9E73C"/>
</g>
<g opacity="0.6">
<path d="M21.0704 19.9278L18.469 17.3265C18.1535 17.011 17.642 17.011 17.3264 17.3265C17.011 17.642 17.011 18.1535 17.3264 18.469L19.9278 21.0704C20.0855 21.2282 20.2923 21.307 20.4991 21.307C20.7059 21.307 20.9127 21.2282 21.0704 21.0704C21.3858 20.7549 21.3858 20.2433 21.0704 19.9278Z" fill="#D9E73C"/>
</g>
<g opacity="0.4">
<path d="M8.48473 13.1924H4.80789C4.36172 13.1924 4 13.5541 4 14.0003C4 14.4465 4.36172 14.8082 4.80789 14.8082H8.48473C8.9309 14.8082 9.29262 14.4465 9.29262 14.0003C9.29266 13.5541 8.9309 13.1924 8.48473 13.1924Z" fill="#D9E73C"/>
</g>
<g opacity="0.8">
<path d="M23.1918 13.1924H19.5149C19.0687 13.1924 18.707 13.5541 18.707 14.0003C18.707 14.4465 19.0687 14.8082 19.5149 14.8082H23.1918C23.638 14.8082 23.9996 14.4465 23.9996 14.0003C23.9996 13.5541 23.638 13.1924 23.1918 13.1924Z" fill="#D9E73C"/>
</g>
<g opacity="0.2">
<path d="M10.6719 17.3265C10.3564 17.011 9.84487 17.011 9.5294 17.3265L6.92804 19.9278C6.61253 20.2433 6.61253 20.7549 6.92804 21.0704C7.08577 21.2282 7.29257 21.307 7.49933 21.307C7.70608 21.307 7.91284 21.2282 8.07058 21.0704L10.6719 18.469C10.9874 18.1535 10.9874 17.642 10.6719 17.3265Z" fill="#D9E73C"/>
</g>
<path d="M21.0704 6.92999C20.7548 6.61448 20.2433 6.61448 19.9278 6.92999L17.3264 9.53136C17.011 9.84683 17.011 10.3583 17.3264 10.6739C17.4842 10.8316 17.691 10.9105 17.8977 10.9105C18.1045 10.9105 18.3112 10.8316 18.469 10.6739L21.0704 8.07249C21.3858 7.75702 21.3858 7.2455 21.0704 6.92999Z" fill="#D9E73C"/>
</g>
<defs>
<clipPath id="clip0_2338_1290">
<rect width="20" height="20" fill="white" transform="translate(4 4)"/>
</clipPath>
</defs>
</svg>
