<svg width="17" height="16" viewBox="0 0 17 16" fill="none" xmlns="http://www.w3.org/2000/svg">
<path d="M8.11621 0.5C8.29446 0.500084 8.4676 0.595743 8.5498 0.793945V0.794922L10.2939 5.06055L10.4111 5.34668L10.7207 5.36914L15.2949 5.70215L15.3037 5.70312C15.6933 5.72479 15.8907 6.24725 15.5742 6.52734L11.9951 9.46094L11.752 9.66113L11.8271 9.9668L12.9102 14.416C12.9828 14.7549 12.7286 15.0037 12.4883 15.0039C12.4179 15.0039 12.341 14.9846 12.2656 14.9336L12.248 14.9219L8.33203 12.5039L8.06836 12.3398L7.80469 12.5049L3.93848 14.9238L3.92969 14.9297C3.84786 14.9834 3.76754 15.0039 3.69434 15.0039C3.41482 15.0039 3.1858 14.738 3.26953 14.4365L3.27148 14.4287L3.27344 14.4219L4.3584 9.9668L4.43262 9.66309L4.19238 9.46387L0.660156 6.53027C0.339646 6.25074 0.537789 5.72462 0.928711 5.70312L0.9375 5.70215L5.51074 5.36914L5.82031 5.34668L5.9375 5.06055L7.68164 0.795898C7.76361 0.596492 7.93739 0.5 8.11621 0.5Z" stroke="white"/>
</svg>
