<svg width="189" height="42" viewBox="0 0 189 42" fill="none" xmlns="http://www.w3.org/2000/svg">
<g clip-path="url(#clip0_1290_2472)" filter="url(#filter0_d_1290_2472)">
<path d="M2.29588 8.68388L15.1666 8.35178C17.3118 8.29642 19.3316 8.65188 21.2262 9.41814C23.1473 10.1565 24.8185 11.2139 26.2397 12.5901C27.6874 13.9385 28.8431 15.5526 29.7068 17.4323C30.5697 19.2849 31.0289 21.2837 31.0842 23.4288C31.1396 25.574 30.7841 27.5938 30.0179 29.4884C29.2516 31.3831 28.1807 33.0546 26.8052 34.503C25.4561 35.9235 23.8417 37.0657 21.9619 37.9293C20.1087 38.7651 18.1095 39.2107 15.9643 39.266L3.09358 39.5981L2.29588 8.68388ZM15.71 29.4093C16.4703 29.3897 17.1864 29.2354 17.8582 28.9463C18.5565 28.6294 19.1573 28.2199 19.6606 27.7178C20.1632 27.1886 20.5551 26.5807 20.8362 25.8942C21.1174 25.2076 21.2478 24.4706 21.2275 23.6832C21.2072 22.8957 21.0389 22.1664 20.7227 21.4953C20.4065 20.8242 19.9838 20.2373 19.4546 19.7347C18.9253 19.2321 18.3042 18.8541 17.5912 18.6008C16.9047 18.3197 16.1813 18.1889 15.421 18.2085L13.0586 18.2694L13.3476 29.4703L15.71 29.4093ZM31.1332 7.93978L44.004 7.60768C46.1491 7.55232 48.169 7.90778 50.0636 8.67404C51.9846 9.41244 53.6558 10.4698 55.0771 11.846C56.5248 13.1944 57.6804 14.8085 58.5441 16.6882C59.407 18.5408 59.8662 20.5396 59.9215 22.6847C59.9769 24.8299 59.6214 26.8497 58.8552 28.7443C58.0889 30.639 57.018 32.3105 55.6425 33.7589C54.2934 35.1794 52.679 36.3216 50.7992 37.1852C48.946 38.021 46.9468 38.4666 44.8017 38.5219L31.9309 38.854L31.1332 7.93978ZM44.5473 28.6652C45.3076 28.6456 46.0237 28.4913 46.6955 28.2022C47.3938 27.8853 47.9946 27.4758 48.4979 26.9737C49.0005 26.4445 49.3924 25.8366 49.6736 25.1501C49.9547 24.4635 50.0852 23.7265 50.0648 22.9391C50.0445 22.1516 49.8763 21.4223 49.56 20.7512C49.2438 20.0801 48.8211 19.4932 48.2919 18.9906C47.7627 18.488 47.1416 18.11 46.4286 17.8567C45.742 17.5756 45.0186 17.4448 44.2583 17.4644L41.8959 17.5254L42.185 28.7262L44.5473 28.6652ZM58.2158 33.2849C58.1969 32.5518 58.3148 31.8559 58.5695 31.1972C58.8235 30.5113 59.1886 29.9177 59.6647 29.4163C60.1409 28.915 60.7013 28.5201 61.346 28.2317C61.99 27.9162 62.6785 27.749 63.4117 27.7301C64.1448 27.7112 64.8411 27.8427 65.5005 28.1245C66.1592 28.3793 66.7392 28.7447 67.2406 29.2209C67.7419 29.697 68.1372 30.271 68.4262 30.9428C68.7417 31.5868 68.9089 32.2754 68.9278 33.0085C68.9468 33.7416 68.8153 34.4379 68.5334 35.0973C68.2787 35.756 67.9133 36.336 67.4371 36.8374C66.9603 37.3116 66.3995 37.6929 65.7548 37.9813C65.1108 38.2968 64.4223 38.464 63.6891 38.4829C62.956 38.5018 62.2597 38.3703 61.6003 38.0885C60.9416 37.8337 60.362 37.4819 59.8613 37.0329C59.3599 36.5567 58.965 35.9963 58.6767 35.3516C58.3883 34.707 58.2347 34.0181 58.2158 33.2849ZM69.1587 6.9586L88.2204 6.46674L88.4748 16.3235L79.9214 16.5442L80.0087 19.9248L88.562 19.7041L88.8164 29.5608L80.263 29.7815L80.4648 37.6017L69.9564 37.8728L69.1587 6.9586ZM88.9272 6.44851L99.4763 6.1763L100.274 37.0906L89.7249 37.3628L88.9272 6.44851ZM100.383 6.15292L110.891 5.88177L111.434 26.9393L119.988 26.7186L120.242 36.5753L101.18 37.0672L100.383 6.15292ZM119.873 5.65001L134.25 5.27902L138.283 20.9888L141.541 5.09089L155.512 4.73041L156.309 35.6447L147.063 35.8832L146.625 18.8987L142.868 35.9915L134.071 36.2185L129.437 19.3422L129.875 36.3267L120.67 36.5643L119.873 5.65001ZM170.846 35.9217C168.402 35.9847 166.288 35.6589 164.503 34.9441C162.718 34.2022 161.24 33.2758 160.07 32.1647C158.9 31.0266 158.012 29.786 157.407 28.443C156.829 27.0994 156.511 25.8577 156.455 24.7179L167.696 24.4279C167.708 24.8895 167.813 25.2807 168.012 25.6017C168.21 25.9226 168.448 26.1882 168.725 26.3984C169.002 26.5815 169.291 26.7235 169.592 26.8244C169.893 26.8981 170.152 26.9322 170.369 26.9266C170.776 26.9161 171.128 26.8391 171.423 26.6956C171.744 26.5243 172.011 26.3272 172.223 26.1044C172.434 25.8816 172.591 25.6465 172.694 25.3994C172.822 25.1243 172.884 24.8646 172.877 24.6202C172.867 24.2129 172.642 23.9063 172.201 23.7003C171.761 23.4942 171.187 23.3325 170.477 23.2149C169.767 23.0702 168.962 22.9415 168.062 22.8289C167.19 22.7155 166.303 22.5482 165.4 22.327C164.525 22.105 163.607 21.8162 162.647 21.4606C161.687 21.105 160.805 20.625 160.002 20.0208C159.197 19.3895 158.526 18.6324 157.987 17.7497C157.447 16.8397 157.16 15.7331 157.127 14.4297C157.085 12.8005 157.346 11.3401 157.91 10.0485C158.501 8.729 159.356 7.62009 160.474 6.72175C161.618 5.79556 162.999 5.08064 164.616 4.57699C166.26 4.04549 168.114 3.75311 170.177 3.69986C172.105 3.65012 173.849 3.84966 175.41 4.29848C176.997 4.74661 178.36 5.41792 179.497 6.31241C180.634 7.2069 181.532 8.31135 182.191 9.62576C182.849 10.913 183.24 12.3838 183.364 14.038L172.489 14.3186C172.472 13.667 172.268 13.1016 171.875 12.6227C171.509 12.143 170.96 11.9127 170.227 11.9316C169.657 11.9463 169.145 12.1361 168.693 12.501C168.267 12.8381 168.061 13.2781 168.075 13.8212C168.083 14.147 168.213 14.4426 168.464 14.7078C168.715 14.9459 169.115 15.1801 169.664 15.4105C170.213 15.6137 170.938 15.8123 171.84 16.0064C172.769 16.1998 173.888 16.3883 175.197 16.5719C177.051 16.8501 178.557 17.2732 179.713 17.8412C180.868 18.382 181.768 19.038 182.413 19.8094C183.058 20.5807 183.501 21.4388 183.743 22.3835C183.984 23.3283 184.119 24.3302 184.146 25.3891C184.178 26.6111 183.951 27.8396 183.467 29.0748C183.009 30.2822 182.236 31.389 181.148 32.3953C180.087 33.4008 178.709 34.2244 177.014 34.8659C175.318 35.5074 173.262 35.8593 170.846 35.9217Z" fill="#D9E73C"/>
</g>
<g clip-path="url(#clip1_1290_2472)" filter="url(#filter1_d_1290_2472)">
<path d="M4.90326 3.19655H17.7783C19.9241 3.19655 21.9342 3.60399 23.8084 4.41887C25.7098 5.20658 27.3531 6.30667 28.7384 7.71912C30.1508 9.10441 31.2645 10.7477 32.0794 12.6491C32.8942 14.5233 33.3017 16.5334 33.3017 18.6792C33.3017 20.825 32.8942 22.8351 32.0794 24.7093C31.2645 26.5835 30.1508 28.2268 28.7384 29.6393C27.3531 31.0246 25.7098 32.1246 23.8084 32.9395C21.9342 33.7272 19.9241 34.1211 17.7783 34.1211H4.90326V3.19655ZM17.7783 24.2611C18.5388 24.2611 19.2587 24.1253 19.9377 23.8537C20.6439 23.5549 21.2551 23.161 21.7712 22.6721C22.2873 22.156 22.6947 21.5584 22.9935 20.8794C23.2923 20.2003 23.4417 19.4669 23.4417 18.6792C23.4417 17.8915 23.2923 17.1581 22.9935 16.479C22.6947 15.8 22.2873 15.2024 21.7712 14.6863C21.2551 14.1702 20.6439 13.7764 19.9377 13.5047C19.2587 13.2059 18.5388 13.0566 17.7783 13.0566H15.4152V24.2611H17.7783ZM33.7502 3.19655H46.6252C48.7711 3.19655 50.7811 3.60399 52.6553 4.41887C54.5567 5.20658 56.2 6.30667 57.5853 7.71912C58.9978 9.10441 60.1114 10.7477 60.9263 12.6491C61.7412 14.5233 62.1486 16.5334 62.1486 18.6792C62.1486 20.825 61.7412 22.8351 60.9263 24.7093C60.1114 26.5835 58.9978 28.2268 57.5853 29.6393C56.2 31.0246 54.5567 32.1246 52.6553 32.9395C50.7811 33.7272 48.7711 34.1211 46.6252 34.1211H33.7502V3.19655ZM46.6252 24.2611C47.3858 24.2611 48.1056 24.1253 48.7846 23.8537C49.4909 23.5549 50.102 23.161 50.6181 22.6721C51.1342 22.156 51.5416 21.5584 51.8404 20.8794C52.1392 20.2003 52.2886 19.4669 52.2886 18.6792C52.2886 17.8915 52.1392 17.1581 51.8404 16.479C51.5416 15.8 51.1342 15.2024 50.6181 14.6863C50.102 14.1702 49.4909 13.7764 48.7846 13.5047C48.1056 13.2059 47.3858 13.0566 46.6252 13.0566H44.2621V24.2611H46.6252ZM60.17 29.2318C60.17 28.4985 60.3058 27.8058 60.5774 27.1539C60.849 26.4748 61.2293 25.8908 61.7182 25.4019C62.2072 24.913 62.7776 24.5327 63.4295 24.2611C64.0814 23.9623 64.774 23.8129 65.5074 23.8129C66.2408 23.8129 66.9335 23.9623 67.5854 24.2611C68.2373 24.5327 68.8077 24.913 69.2966 25.4019C69.7855 25.8908 70.1658 26.4748 70.4374 27.1539C70.7362 27.8058 70.8856 28.4985 70.8856 29.2318C70.8856 29.9652 70.7362 30.6579 70.4374 31.3098C70.1658 31.9617 69.7855 32.5321 69.2966 33.021C68.8077 33.4828 68.2373 33.8495 67.5854 34.1211C66.9335 34.4199 66.2408 34.5693 65.5074 34.5693C64.774 34.5693 64.0814 34.4199 63.4295 34.1211C62.7776 33.8495 62.2072 33.4828 61.7182 33.021C61.2293 32.5321 60.849 31.9617 60.5774 31.3098C60.3058 30.6579 60.17 29.9652 60.17 29.2318ZM71.7883 3.19655H90.8564V13.0566H82.3002V16.4383H90.8564V26.2983H82.3002V34.1211H71.7883V3.19655ZM91.5634 3.19655H102.116V34.1211H91.5634V3.19655ZM103.023 3.19655H113.534V24.2611H122.091V34.1211H103.023V3.19655ZM122.519 3.19655H136.902L140.528 19.0051L144.195 3.19655H158.17V34.1211H148.921V17.1309L144.724 34.1211H135.924L131.727 17.1309V34.1211H122.519V3.19655ZM172.694 34.773C170.25 34.773 168.145 34.3927 166.379 33.6322C164.614 32.8445 163.16 31.8802 162.02 30.7394C160.879 29.5714 160.023 28.3083 159.453 26.9502C158.909 25.5921 158.624 24.3426 158.597 23.2018H169.842C169.842 23.6635 169.937 24.0574 170.128 24.3833C170.318 24.7093 170.549 24.9809 170.82 25.1982C171.092 25.3883 171.377 25.5377 171.676 25.6464C171.975 25.7279 172.233 25.7686 172.45 25.7686C172.857 25.7686 173.211 25.7007 173.509 25.5649C173.835 25.4019 174.107 25.2118 174.324 24.9945C174.542 24.7772 174.704 24.5463 174.813 24.3018C174.949 24.0302 175.017 23.7722 175.017 23.5277C175.017 23.1203 174.8 22.8079 174.365 22.5906C173.93 22.3733 173.36 22.1967 172.654 22.0609C171.947 21.898 171.146 21.7486 170.25 21.6127C169.381 21.4769 168.498 21.2868 167.601 21.0423C166.732 20.7979 165.822 20.4855 164.872 20.1052C163.921 19.725 163.052 19.2224 162.264 18.5977C161.476 17.9458 160.824 17.1717 160.308 16.2753C159.792 15.3518 159.534 14.2381 159.534 12.9343C159.534 11.3046 159.833 9.85137 160.431 8.57474C161.055 7.27094 161.938 6.18443 163.079 5.31523C164.247 4.41887 165.646 3.73981 167.276 3.27804C168.932 2.78912 170.793 2.54466 172.857 2.54466C174.786 2.54466 176.524 2.78912 178.073 3.27804C179.648 3.76697 180.993 4.47319 182.106 5.39672C183.22 6.32025 184.089 7.44749 184.714 8.77845C185.339 10.0823 185.692 11.5626 185.773 13.2195H174.895C174.895 12.5676 174.704 11.9972 174.324 11.5083C173.971 11.0194 173.428 10.7749 172.694 10.7749C172.124 10.7749 171.608 10.9515 171.146 11.3046C170.712 11.6305 170.494 12.0651 170.494 12.6084C170.494 12.9343 170.617 13.2331 170.861 13.5047C171.105 13.7492 171.499 13.9937 172.043 14.2381C172.586 14.4554 173.306 14.6727 174.202 14.89C175.126 15.1073 176.239 15.3246 177.543 15.5419C179.39 15.8679 180.884 16.3296 182.025 16.9272C183.166 17.4976 184.048 18.1767 184.673 18.9644C185.298 19.7521 185.719 20.6213 185.936 21.572C186.153 22.5227 186.262 23.5277 186.262 24.587C186.262 25.8094 186.004 27.0317 185.488 28.254C184.999 29.4491 184.198 30.5356 183.084 31.5135C181.998 32.4913 180.599 33.2791 178.888 33.8766C177.176 34.4742 175.112 34.773 172.694 34.773Z" fill="#D9E73C"/>
</g>
<g clip-path="url(#clip2_1290_2472)" filter="url(#filter2_d_1290_2472)">
<path d="M6.06888 2.29308L18.9417 2.53105C21.0872 2.57071 23.0893 3.01523 24.9482 3.86461C26.8347 4.68733 28.4574 5.8176 29.8163 7.25541C31.2029 8.66657 32.286 10.3302 33.0656 12.2463C33.8457 14.1353 34.216 16.1525 34.1763 18.298C34.1366 20.4434 33.6921 22.4456 32.8427 24.3044C31.9934 26.1633 30.8495 27.7857 29.4112 29.1718C28.0005 30.5313 26.3372 31.6008 24.421 32.3804C22.5326 33.1333 20.5156 33.49 18.3701 33.4503L5.49731 33.2123L6.06888 2.29308ZM18.5524 23.592C19.3128 23.6061 20.035 23.4836 20.719 23.2245C21.4306 22.9389 22.0489 22.5564 22.574 22.0771C23.0995 21.5706 23.5179 20.9807 23.8292 20.3072C24.1405 19.6338 24.3034 18.9033 24.318 18.1157C24.3325 17.3281 24.1967 16.5921 23.9105 15.9077C23.6244 15.2232 23.228 14.6182 22.7216 14.0926C22.2151 13.5671 21.6113 13.162 20.9102 12.8774C20.2368 12.5661 19.5199 12.4034 18.7595 12.3894L16.3967 12.3457L16.1897 23.5483L18.5524 23.592ZM34.9109 2.82626L47.7837 3.06422C49.9292 3.10389 51.9313 3.54841 53.7902 4.39778C55.6767 5.2205 57.2994 6.35077 58.6583 7.78859C60.0449 9.19975 61.128 10.8634 61.9076 12.7795C62.6877 14.6684 63.0579 16.6857 63.0183 18.8311C62.9786 20.9766 62.5341 22.9788 61.6847 24.8376C60.8353 26.6964 59.6915 28.3189 58.2532 29.705C56.8425 31.0645 55.1791 32.134 53.263 32.9136C51.3746 33.6665 49.3576 34.0231 47.2121 33.9835L34.3393 33.7455L34.9109 2.82626ZM47.3944 24.1252C48.1548 24.1392 48.877 24.0167 49.561 23.7577C50.2726 23.472 50.8909 23.0895 51.416 22.6102C51.9415 22.1038 52.3599 21.5138 52.6712 20.8404C52.9825 20.167 53.1454 19.4365 53.16 18.6489C53.1745 17.8613 53.0387 17.1253 52.7525 16.4408C52.4663 15.7564 52.07 15.1513 51.5636 14.6258C51.0571 14.1003 50.4533 13.6952 49.7522 13.4106C49.0788 13.0993 48.3619 12.9366 47.6015 12.9225L45.2387 12.8789L45.0316 24.0815L47.3944 24.1252ZM60.845 29.3454C60.8585 28.6121 61.0071 27.9221 61.2907 27.2754C61.5749 26.6014 61.9659 26.0246 62.4637 25.5448C62.9616 25.065 63.539 24.6953 64.1958 24.4358C64.8531 24.1491 65.5484 24.0125 66.2816 24.0261C67.0149 24.0396 67.7047 24.2018 68.3509 24.5126C68.9977 24.7962 69.561 25.187 70.0408 25.6848C70.5206 26.1827 70.89 26.7736 71.149 27.4576C71.4357 28.1149 71.5723 28.8102 71.5587 29.5435C71.5452 30.2767 71.383 30.9665 71.0722 31.6128C70.7886 32.2595 70.3979 32.8228 69.9 33.3026C69.4026 33.7553 68.8255 34.1114 68.1687 34.3709C67.5114 34.6576 66.8161 34.7941 66.0828 34.7806C65.3496 34.767 64.6598 34.6049 64.0135 34.2941C63.3668 34.0104 62.8032 33.6333 62.3229 33.1625C61.8431 32.6647 61.4735 32.0873 61.2139 31.4305C60.9544 30.7737 60.8314 30.0787 60.845 29.3454ZM72.9425 3.52931L92.0074 3.88174L91.8251 13.7401L83.2704 13.5819L83.2079 16.9631L91.7626 17.1212L91.5804 26.9795L83.0256 26.8214L82.8811 34.6429L72.371 34.4486L72.9425 3.52931ZM92.7142 3.89481L103.265 4.08985L102.693 35.0091L92.1426 34.8141L92.7142 3.89481ZM104.171 4.10661L114.682 4.3009L114.292 25.3618L122.847 25.52L122.665 35.3783L103.6 35.0259L104.171 4.10661ZM123.665 4.46696L138.045 4.73279L141.378 20.6057L145.337 4.86759L159.309 5.12589L158.738 36.0451L149.491 35.8742L149.805 18.8869L145.295 35.7966L136.495 35.634L132.614 18.5691L132.3 35.5564L123.093 35.3862L123.665 4.46696ZM173.248 36.9654C170.804 36.9202 168.706 36.5011 166.955 35.708C165.204 34.8878 163.769 33.8969 162.649 32.7351C161.53 31.5463 160.698 30.2676 160.153 28.8992C159.635 27.5312 159.373 26.2767 159.367 25.1356L170.61 25.3434C170.602 25.8051 170.689 26.2006 170.873 26.5301C171.057 26.8595 171.283 27.1353 171.551 27.3576C171.819 27.5527 172.101 27.7074 172.398 27.8215C172.695 27.9085 172.953 27.954 173.17 27.958C173.577 27.9656 173.931 27.9042 174.233 27.7739C174.562 27.617 174.837 27.4319 175.058 27.2187C175.279 27.0054 175.446 26.7776 175.56 26.5352C175.7 26.2661 175.773 26.0094 175.778 25.7649C175.785 25.3576 175.574 25.0412 175.143 24.816C174.713 24.5907 174.146 24.4036 173.442 24.2547C172.739 24.0787 171.941 23.9146 171.047 23.7622C170.18 23.6104 169.301 23.4039 168.409 23.1429C167.545 22.8825 166.641 22.5533 165.697 22.1555C164.754 21.7578 163.894 21.2393 163.118 20.6001C162.343 19.9337 161.705 19.1477 161.206 18.2419C160.707 17.309 160.469 16.1908 160.493 14.8872C160.524 13.2577 160.849 11.8103 161.47 10.5449C162.119 9.2529 163.022 8.1829 164.178 7.33494C165.363 6.46031 166.774 5.80722 168.412 5.37566C170.078 4.91744 171.942 4.70741 174.006 4.74557C175.935 4.78121 177.668 5.05776 179.207 5.57522C180.773 6.09318 182.105 6.82414 183.201 7.76809C184.297 8.71204 185.146 9.85516 185.746 11.1974C186.346 12.5126 186.672 13.9992 186.723 15.6573L175.846 15.4563C175.858 14.8045 175.678 14.2307 175.307 13.7348C174.963 13.2394 174.425 12.9849 173.691 12.9714C173.121 12.9609 172.602 13.1278 172.134 13.4724C171.693 13.7902 171.468 14.2207 171.458 14.7639C171.452 15.0898 171.568 15.3908 171.808 15.6669C172.048 15.9158 172.437 16.1675 172.976 16.422C173.515 16.6493 174.23 16.8798 175.123 17.1137C176.042 17.348 177.151 17.5859 178.451 17.8272C180.292 18.1873 181.777 18.6765 182.906 19.2951C184.036 19.8865 184.907 20.5818 185.517 21.3809C186.127 22.18 186.532 23.0569 186.731 24.0114C186.931 24.9659 187.021 25.9728 187.001 27.0319C186.979 28.2541 186.698 29.4714 186.16 30.684C185.649 31.8699 184.827 32.9414 183.696 33.8985C182.592 34.8561 181.178 35.6178 179.456 36.1836C177.734 36.7495 175.665 37.0101 173.248 36.9654Z" fill="#D9E73C"/>
</g>
<g clip-path="url(#clip3_1290_2472)" filter="url(#filter3_d_1290_2472)">
<path d="M2.7558 2.73659H15.6308C17.7767 2.73659 19.7867 3.14403 21.6609 3.95891C23.5623 4.74662 25.2056 5.8467 26.5909 7.25916C28.0034 8.64445 29.117 10.2878 29.9319 12.1892C30.7468 14.0634 31.1542 16.0734 31.1542 18.2192C31.1542 20.3651 30.7468 22.3751 29.9319 24.2493C29.117 26.1235 28.0034 27.7669 26.5909 29.1793C25.2056 30.5646 23.5623 31.6647 21.6609 32.4796C19.7867 33.2673 17.7767 33.6611 15.6308 33.6611H2.7558V2.73659ZM15.6308 23.8011C16.3914 23.8011 17.1112 23.6653 17.7903 23.3937C18.4965 23.0949 19.1076 22.7011 19.6237 22.2121C20.1398 21.696 20.5473 21.0985 20.846 20.4194C21.1448 19.7403 21.2942 19.0069 21.2942 18.2192C21.2942 17.4315 21.1448 16.6981 20.846 16.0191C20.5473 15.34 20.1398 14.7424 19.6237 14.2263C19.1076 13.7103 18.4965 13.3164 17.7903 13.0448C17.1112 12.746 16.3914 12.5966 15.6308 12.5966H13.2677V23.8011H15.6308ZM31.6027 2.73659H44.4778C46.6236 2.73659 48.6336 3.14403 50.5078 3.95891C52.4092 4.74662 54.0525 5.8467 55.4378 7.25916C56.8503 8.64445 57.964 10.2878 58.7788 12.1892C59.5937 14.0634 60.0011 16.0734 60.0011 18.2192C60.0011 20.3651 59.5937 22.3751 58.7788 24.2493C57.964 26.1235 56.8503 27.7669 55.4378 29.1793C54.0525 30.5646 52.4092 31.6647 50.5078 32.4796C48.6336 33.2673 46.6236 33.6611 44.4778 33.6611H31.6027V2.73659ZM44.4778 23.8011C45.2383 23.8011 45.9581 23.6653 46.6372 23.3937C47.3434 23.0949 47.9546 22.7011 48.4707 22.2121C48.9867 21.696 49.3942 21.0985 49.693 20.4194C49.9918 19.7403 50.1411 19.0069 50.1411 18.2192C50.1411 17.4315 49.9918 16.6981 49.693 16.0191C49.3942 15.34 48.9867 14.7424 48.4707 14.2263C47.9546 13.7103 47.3434 13.3164 46.6372 13.0448C45.9581 12.746 45.2383 12.5966 44.4778 12.5966H42.1146V23.8011H44.4778ZM58.0225 28.7719C58.0225 28.0385 58.1583 27.3458 58.43 26.6939C58.7016 26.0149 59.0819 25.4309 59.5708 24.942C60.0597 24.453 60.6301 24.0728 61.282 23.8011C61.9339 23.5023 62.6266 23.353 63.36 23.353C64.0933 23.353 64.786 23.5023 65.4379 23.8011C66.0898 24.0728 66.6602 24.453 67.1491 24.942C67.6381 25.4309 68.0183 26.0149 68.29 26.6939C68.5887 27.3458 68.7381 28.0385 68.7381 28.7719C68.7381 29.5053 68.5887 30.1979 68.29 30.8498C68.0183 31.5017 67.6381 32.0721 67.1491 32.5611C66.6602 33.0228 66.0898 33.3895 65.4379 33.6611C64.786 33.9599 64.0933 34.1093 63.36 34.1093C62.6266 34.1093 61.9339 33.9599 61.282 33.6611C60.6301 33.3895 60.0597 33.0228 59.5708 32.5611C59.0819 32.0721 58.7016 31.5017 58.43 30.8498C58.1583 30.1979 58.0225 29.5053 58.0225 28.7719ZM69.6409 2.73659H88.709V12.5966H80.1528V15.9783H88.709V25.8383H80.1528V33.6611H69.6409V2.73659ZM89.4159 2.73659H99.9686V33.6611H89.4159V2.73659ZM100.875 2.73659H111.387V23.8011H119.943V33.6611H100.875V2.73659ZM120.372 2.73659H134.754L138.38 18.5452L142.047 2.73659H156.022V33.6611H146.774V16.671L142.577 33.6611H133.776L129.58 16.671V33.6611H120.372V2.73659ZM170.547 34.313C168.102 34.313 165.997 33.9328 164.232 33.1722C162.466 32.3845 161.013 31.4202 159.872 30.2794C158.731 29.1114 157.876 27.8484 157.305 26.4902C156.762 25.1321 156.477 23.8826 156.45 22.7418H167.695C167.695 23.2036 167.79 23.5974 167.98 23.9234C168.17 24.2493 168.401 24.5209 168.673 24.7382C168.944 24.9284 169.23 25.0778 169.528 25.1864C169.827 25.2679 170.085 25.3087 170.303 25.3087C170.71 25.3087 171.063 25.2407 171.362 25.1049C171.688 24.942 171.959 24.7518 172.177 24.5345C172.394 24.3172 172.557 24.0863 172.666 23.8419C172.801 23.5703 172.869 23.3122 172.869 23.0677C172.869 22.6603 172.652 22.3479 172.217 22.1306C171.783 21.9133 171.212 21.7368 170.506 21.601C169.8 21.438 168.999 21.2886 168.102 21.1528C167.233 21.017 166.35 20.8268 165.454 20.5824C164.585 20.3379 163.675 20.0255 162.724 19.6453C161.774 19.265 160.904 18.7625 160.117 18.1377C159.329 17.4858 158.677 16.7117 158.161 15.8154C157.645 14.8918 157.387 13.7782 157.387 12.4744C157.387 10.8446 157.686 9.39141 158.283 8.11478C158.908 6.81097 159.791 5.72447 160.931 4.85527C162.099 3.95891 163.498 3.27985 165.128 2.81808C166.785 2.32916 168.646 2.08469 170.71 2.08469C172.639 2.08469 174.377 2.32916 175.925 2.81808C177.501 3.30701 178.845 4.01323 179.959 4.93676C181.072 5.86029 181.942 6.98753 182.566 8.31849C183.191 9.6223 183.544 11.1027 183.626 12.7596H172.747C172.747 12.1077 172.557 11.5373 172.177 11.0483C171.824 10.5594 171.28 10.3149 170.547 10.3149C169.977 10.3149 169.46 10.4915 168.999 10.8446C168.564 11.1706 168.347 11.6052 168.347 12.1484C168.347 12.4744 168.469 12.7731 168.714 13.0448C168.958 13.2892 169.352 13.5337 169.895 13.7782C170.438 13.9955 171.158 14.2128 172.055 14.4301C172.978 14.6474 174.092 14.8647 175.396 15.082C177.243 15.4079 178.737 15.8697 179.877 16.4673C181.018 17.0377 181.901 17.7167 182.526 18.5044C183.15 19.2922 183.571 20.1614 183.789 21.112C184.006 22.0627 184.115 23.0677 184.115 24.1271C184.115 25.3494 183.857 26.5717 183.341 27.794C182.852 28.9892 182.05 30.0757 180.937 31.0535C179.85 32.0314 178.451 32.8191 176.74 33.4167C175.029 34.0142 172.964 34.313 170.547 34.313Z" fill="#D9E73C"/>
</g>
<g clip-path="url(#clip4_1290_2472)" filter="url(#filter4_d_1290_2472)">
<path d="M1.39927 1.89246L14.2737 2.01262C16.4195 2.03264 18.4256 2.45882 20.2922 3.29115C22.1861 4.09657 23.8191 5.21194 25.1911 6.63726C26.5906 8.03567 27.6889 9.68933 28.486 11.5982C29.2833 13.48 29.672 15.4937 29.652 17.6394C29.6319 19.7852 29.2058 21.7913 28.3734 23.6579C27.5411 25.5244 26.4122 27.1573 24.9866 28.5565C23.5884 29.9288 21.9349 31.0135 20.026 31.8106C18.1445 32.5808 16.1309 32.9558 13.9852 32.9358L1.11068 32.8157L1.39927 1.89246ZM14.0772 23.0762C14.8377 23.0833 15.5587 22.9542 16.2403 22.689C16.9493 22.3968 17.5641 22.0087 18.0847 21.5246C18.6056 21.0133 19.0186 20.4196 19.3237 19.7433C19.6288 19.0671 19.7851 18.3351 19.7924 17.5474C19.7998 16.7598 19.6572 16.025 19.3648 15.3432C19.0723 14.6614 18.6705 14.06 18.1592 13.5391C17.648 13.0182 17.0405 12.6187 16.3369 12.3405C15.6606 12.0354 14.9423 11.8793 14.1817 11.8722L11.8187 11.8501L11.7141 23.0542L14.0772 23.0762ZM30.2449 2.16167L43.1194 2.28182C45.2652 2.30184 47.2713 2.72802 49.1378 3.56035C51.0318 4.36578 52.6648 5.48115 54.0368 6.90647C55.4363 8.30488 56.5346 9.95853 57.3316 11.8674C58.129 13.7492 58.5177 15.7629 58.4976 17.9087C58.4776 20.0544 58.0514 22.0605 57.2191 23.9271C56.3868 25.7936 55.2578 27.4265 53.8322 28.8257C52.4341 30.198 50.7806 31.2827 48.8717 32.0798C46.9902 32.85 44.9766 33.225 42.8308 33.205L29.9563 33.0849L30.2449 2.16167ZM42.9228 23.3454C43.6834 23.3525 44.4044 23.2235 45.086 22.9582C45.7949 22.666 46.4098 22.2779 46.9304 21.7938C47.4513 21.2825 47.8643 20.6888 48.1694 20.0125C48.4745 19.3363 48.6307 18.6043 48.6381 17.8166C48.6454 17.029 48.5029 16.2942 48.2104 15.6124C47.918 14.9306 47.5162 14.3292 47.0049 13.8083C46.4937 13.2874 45.8862 12.8879 45.1825 12.6097C44.5063 12.3046 43.7879 12.1485 43.0274 12.1414L40.6644 12.1193L40.5598 23.3234L42.9228 23.3454ZM56.4206 28.4424C56.4275 27.709 56.5697 27.0177 56.8474 26.3683C57.1254 25.6918 57.5111 25.1114 58.0046 24.6271C58.498 24.1427 59.072 23.7678 59.7264 23.5023C60.381 23.2096 61.075 23.0666 61.8084 23.0735C62.5418 23.0803 63.233 23.2362 63.8821 23.541C64.5314 23.8187 65.0982 24.2043 65.5826 24.6978C66.0669 25.1913 66.4417 25.7788 66.707 26.4603C66.9997 27.115 67.1426 27.809 67.1358 28.5424C67.1289 29.2757 66.9731 29.9669 66.6682 30.616C66.3905 31.2654 66.0049 31.8322 65.5115 32.3165C65.0183 32.7737 64.4444 33.1351 63.79 33.4006C63.1354 33.6933 62.4414 33.8362 61.708 33.8294C60.9747 33.8225 60.2834 33.6667 59.6344 33.3618C58.985 33.0841 58.4181 32.7121 57.9335 32.2458C57.4491 31.7524 57.0742 31.1784 56.8087 30.524C56.5431 29.8696 56.4138 29.1757 56.4206 28.4424ZM68.2814 2.51665L87.3487 2.69459L87.2567 12.5542L78.7009 12.4743L78.6693 15.8559L87.2251 15.9357L87.1331 25.7953L78.5773 25.7155L78.5043 33.5379L67.9928 33.4398L68.2814 2.51665ZM88.0556 2.70119L98.6078 2.79967L98.3192 33.7229L87.767 33.6244L88.0556 2.70119ZM99.5143 2.80813L110.026 2.90623L109.829 23.9699L118.385 24.0497L118.293 33.9093L99.2257 33.7313L99.5143 2.80813ZM119.01 2.99007L133.392 3.12429L136.87 18.966L140.685 3.19236L154.659 3.32277L154.371 34.246L145.122 34.1597L145.281 17.1702L140.926 34.1205L132.126 34.0384L128.088 17.0098L127.929 33.9992L118.721 33.9133L119.01 2.99007ZM168.888 35.0334C166.444 35.0106 164.343 34.6107 162.584 33.8337C160.826 33.0295 159.382 32.0517 158.252 30.9003C157.122 29.7217 156.278 28.4507 155.72 27.0873C155.19 25.7242 154.916 24.4721 154.9 23.3311L166.145 23.436C166.14 23.8978 166.232 24.2925 166.419 24.6202C166.606 24.9479 166.834 25.2217 167.104 25.4415C167.374 25.6342 167.657 25.7862 167.955 25.8977C168.253 25.9819 168.511 26.0251 168.728 26.0271C169.135 26.0309 169.489 25.9663 169.789 25.8333C170.117 25.6734 170.39 25.4858 170.609 25.2705C170.829 25.0552 170.994 24.8259 171.105 24.5825C171.243 24.3121 171.313 24.0547 171.316 23.8103C171.32 23.4028 171.105 23.0885 170.673 22.8671C170.24 22.6458 169.671 22.4639 168.966 22.3215C168.262 22.1519 167.462 21.9951 166.567 21.8509C165.699 21.707 164.818 21.5086 163.924 21.2558C163.057 21.0032 162.15 20.6824 161.203 20.2933C160.256 19.9041 159.391 19.3935 158.609 18.7615C157.828 18.1022 157.183 17.3221 156.676 16.4209C156.168 15.4926 155.92 14.3766 155.933 13.0728C155.948 11.4432 156.26 9.99282 156.87 8.72182C157.507 7.4239 158.399 6.34569 159.548 5.48717C160.725 4.60175 162.13 3.93577 163.764 3.48923C165.425 3.01579 167.288 2.7887 169.352 2.80797C171.281 2.82597 173.017 3.08664 174.56 3.58999C176.131 4.0936 177.469 4.81234 178.574 5.74622C179.679 6.6801 180.538 7.81541 181.15 9.15214C181.763 10.4617 182.102 11.9453 182.168 13.6029L171.29 13.5014C171.296 12.8495 171.111 12.2774 170.735 11.7849C170.387 11.2927 169.846 11.0432 169.112 11.0363C168.542 11.031 168.024 11.2027 167.559 11.5515C167.122 11.8734 166.9 12.306 166.895 12.8492C166.892 13.1751 167.012 13.475 167.254 13.7489C167.496 13.9957 167.887 14.2438 168.428 14.4933C168.969 14.7157 169.687 14.9397 170.581 15.1653C171.503 15.3913 172.615 15.6189 173.916 15.8484C175.76 16.1916 177.25 16.6673 178.385 17.2755C179.52 17.8565 180.397 18.5438 181.014 19.3373C181.632 20.1308 182.044 21.0039 182.253 21.9565C182.461 22.9092 182.561 23.9152 182.551 24.9745C182.539 26.1968 182.27 27.4166 181.742 28.6341C181.242 29.8246 180.431 30.9036 179.308 31.871C178.213 32.8386 176.806 33.6133 175.09 34.1949C173.373 34.7764 171.306 35.0559 168.888 35.0334Z" fill="#D9E73C"/>
</g>
<defs>
<filter id="filter0_d_1290_2472" x="1.41647" y="29.5684" width="184.137" height="11.9136" filterUnits="userSpaceOnUse" color-interpolation-filters="sRGB">
<feFlood flood-opacity="0" result="BackgroundImageFix"/>
<feColorMatrix in="SourceAlpha" type="matrix" values="0 0 0 0 0 0 0 0 0 0 0 0 0 0 0 0 0 0 127 0" result="hardAlpha"/>
<feOffset dy="0.613356"/>
<feGaussianBlur stdDeviation="0.552021"/>
<feComposite in2="hardAlpha" operator="out"/>
<feColorMatrix type="matrix" values="0 0 0 0 0.259703 0 0 0 0 0.276743 0 0 0 0 0.068614 0 0 0 0.26 0"/>
<feBlend mode="normal" in2="BackgroundImageFix" result="effect1_dropShadow_1290_2472"/>
<feBlend mode="normal" in="SourceGraphic" in2="effect1_dropShadow_1290_2472" result="shape"/>
</filter>
<filter id="filter1_d_1290_2472" x="3.04147" y="19.0074" width="184.188" height="13.5816" filterUnits="userSpaceOnUse" color-interpolation-filters="sRGB">
<feFlood flood-opacity="0" result="BackgroundImageFix"/>
<feColorMatrix in="SourceAlpha" type="matrix" values="0 0 0 0 0 0 0 0 0 0 0 0 0 0 0 0 0 0 127 0" result="hardAlpha"/>
<feOffset dy="0.613356"/>
<feGaussianBlur stdDeviation="0.552021"/>
<feComposite in2="hardAlpha" operator="out"/>
<feColorMatrix type="matrix" values="0 0 0 0 0.259703 0 0 0 0 0.276743 0 0 0 0 0.068614 0 0 0 0.26 0"/>
<feBlend mode="normal" in2="BackgroundImageFix" result="effect1_dropShadow_1290_2472"/>
<feBlend mode="normal" in="SourceGraphic" in2="effect1_dropShadow_1290_2472" result="shape"/>
</filter>
<filter id="filter2_d_1290_2472" x="4.20846" y="10.0249" width="184.193" height="14.0015" filterUnits="userSpaceOnUse" color-interpolation-filters="sRGB">
<feFlood flood-opacity="0" result="BackgroundImageFix"/>
<feColorMatrix in="SourceAlpha" type="matrix" values="0 0 0 0 0 0 0 0 0 0 0 0 0 0 0 0 0 0 127 0" result="hardAlpha"/>
<feOffset dy="0.613356"/>
<feGaussianBlur stdDeviation="0.552021"/>
<feComposite in2="hardAlpha" operator="out"/>
<feColorMatrix type="matrix" values="0 0 0 0 0.259703 0 0 0 0 0.276743 0 0 0 0 0.068614 0 0 0 0.26 0"/>
<feBlend mode="normal" in2="BackgroundImageFix" result="effect1_dropShadow_1290_2472"/>
<feBlend mode="normal" in="SourceGraphic" in2="effect1_dropShadow_1290_2472" result="shape"/>
</filter>
<filter id="filter3_d_1290_2472" x="1.20358" y="8.17777" width="184.068" height="4.50838" filterUnits="userSpaceOnUse" color-interpolation-filters="sRGB">
<feFlood flood-opacity="0" result="BackgroundImageFix"/>
<feColorMatrix in="SourceAlpha" type="matrix" values="0 0 0 0 0 0 0 0 0 0 0 0 0 0 0 0 0 0 127 0" result="hardAlpha"/>
<feOffset dy="0.613356"/>
<feGaussianBlur stdDeviation="0.552021"/>
<feComposite in2="hardAlpha" operator="out"/>
<feColorMatrix type="matrix" values="0 0 0 0 0.259703 0 0 0 0 0.276743 0 0 0 0 0.068614 0 0 0 0.26 0"/>
<feBlend mode="normal" in2="BackgroundImageFix" result="effect1_dropShadow_1290_2472"/>
<feBlend mode="normal" in="SourceGraphic" in2="effect1_dropShadow_1290_2472" result="shape"/>
</filter>
<filter id="filter4_d_1290_2472" x="-0.208534" y="-0.490685" width="184.134" height="11.7252" filterUnits="userSpaceOnUse" color-interpolation-filters="sRGB">
<feFlood flood-opacity="0" result="BackgroundImageFix"/>
<feColorMatrix in="SourceAlpha" type="matrix" values="0 0 0 0 0 0 0 0 0 0 0 0 0 0 0 0 0 0 127 0" result="hardAlpha"/>
<feOffset dy="0.613356"/>
<feGaussianBlur stdDeviation="0.552021"/>
<feComposite in2="hardAlpha" operator="out"/>
<feColorMatrix type="matrix" values="0 0 0 0 0.259703 0 0 0 0 0.276743 0 0 0 0 0.068614 0 0 0 0.26 0"/>
<feBlend mode="normal" in2="BackgroundImageFix" result="effect1_dropShadow_1290_2472"/>
<feBlend mode="normal" in="SourceGraphic" in2="effect1_dropShadow_1290_2472" result="shape"/>
</filter>
<clipPath id="clip0_1290_2472">
<rect width="181.86" height="5.01606" fill="white" transform="matrix(0.999667 -0.0257948 -0.0257948 -0.999667 2.64941 39.7646)"/>
</clipPath>
<clipPath id="clip1_1290_2472">
<rect width="181.98" height="11.3737" fill="white" transform="matrix(1 0 0 -1 4.14551 30.8716)"/>
</clipPath>
<clipPath id="clip2_1290_2472">
<rect width="181.86" height="8.43365" fill="white" transform="translate(5.46875 10.5156) rotate(1.05905)"/>
</clipPath>
<clipPath id="clip3_1290_2472">
<rect width="181.86" height="2.30009" fill="white" transform="matrix(1 0 0 -1 2.30762 10.9688)"/>
</clipPath>
<clipPath id="clip4_1290_2472">
<rect width="181.86" height="7.82029" fill="white" transform="translate(0.96875) rotate(0.534702)"/>
</clipPath>
</defs>
</svg>
