<svg width="48" height="48" viewBox="0 0 48 48" fill="none" xmlns="http://www.w3.org/2000/svg">
<path d="M24 42.5C34.2173 42.5 42.5 34.2173 42.5 24C42.5 13.7827 34.2173 5.5 24 5.5C13.7827 5.5 5.5 13.7827 5.5 24C5.5 34.2173 13.7827 42.5 24 42.5Z" fill="url(#paint0_linear_1904_3134)"/>
<path d="M34.282 39.382C31.342 41.351 27.805 42.5 24 42.5C13.783 42.5 5.5 34.217 5.5 24C5.5 19.577 7.052 15.516 9.642 12.333" stroke="#3DC864" stroke-width="3" stroke-linecap="round" stroke-linejoin="round"/>
<path d="M20.1035 5.911C21.3595 5.642 22.6635 5.5 24.0005 5.5C34.2175 5.5 42.5005 13.783 42.5005 24C42.5005 26.864 41.8495 29.576 40.6875 31.996" stroke="#3DC864" stroke-width="3" stroke-linecap="round" stroke-linejoin="round"/>
<path d="M16.5 24.5L21.5 29.5L31.5 19.5" stroke="#3DC864" stroke-width="3" stroke-linecap="round" stroke-linejoin="round"/>
<defs>
<linearGradient id="paint0_linear_1904_3134" x1="33.252" y1="7.976" x2="14.748" y2="40.024" gradientUnits="userSpaceOnUse">
<stop stop-color="#51D68A" stop-opacity="0.9"/>
<stop offset="0.033" stop-color="#68D999" stop-opacity="0.9"/>
<stop offset="0.197" stop-color="#76D8A0" stop-opacity="0.7"/>
<stop offset="0.362" stop-color="#8FE9B6" stop-opacity="0.5"/>
<stop offset="0.525" stop-color="#A6F2C7" stop-opacity="0.4"/>
<stop offset="0.687" stop-color="#C0FAD8" stop-opacity="0.2"/>
<stop offset="0.846" stop-color="#FBFFFD" stop-opacity="0.05"/>
<stop offset="1" stop-color="white" stop-opacity="0"/>
</linearGradient>
</defs>
</svg>
